<?xml version="1.0" encoding="UTF-8"?>
<svg xmlns="http://www.w3.org/2000/svg" width="133" height="83" viewBox="0 0 133 83" fill="none">
  <path d="M77.1835 34.3328C75.9793 36.1493 74.2243 37.5318 72.1762 38.277C70.1281 39.0223 67.895 39.091 65.805 38.473C63.715 37.8551 61.8783 36.5832 60.5647 34.844C59.2511 33.1049 58.53 30.9904 58.5072 28.811H53.3164C53.3375 32.1186 54.4242 35.3313 56.4155 37.9724C58.4067 40.6136 61.1963 42.5424 64.3704 43.4728C67.5445 44.4032 70.934 44.2856 74.0359 43.1374C77.1379 41.9892 79.7871 39.8717 81.5905 37.0989L77.1835 34.3328Z" fill="#07A2B2"></path>
  <path d="M83.3597 38.2206C81.3125 41.3774 78.3017 43.7897 74.7744 45.0992C71.2471 46.4086 67.3914 46.5453 63.7802 45.4889C60.1691 44.4326 56.995 42.2395 54.7294 39.2355C52.4639 36.2316 51.2278 32.5769 51.2047 28.8145H46C46.0202 33.7057 47.6212 38.4593 50.5641 42.3661C53.5071 46.273 57.6342 49.1237 62.3299 50.493C67.0255 51.8623 72.038 51.6769 76.6197 49.9643C81.2013 48.2517 85.1065 45.1038 87.7527 40.9901L83.3597 38.2206Z" fill="#05757F"></path>
  <path d="M77.3542 23.3274L81.7821 20.6066C80.0196 17.764 77.379 15.573 74.2599 14.3654C71.1409 13.1578 67.7133 12.9993 64.4961 13.9139C61.279 14.8286 58.4474 16.7665 56.4302 19.4344C54.4129 22.1022 53.3198 25.3547 53.3164 28.6993C53.3164 28.7342 53.3164 28.7725 53.3164 28.8108H58.5072C58.5072 28.7725 58.5072 28.7342 58.5072 28.6993C58.5105 26.4857 59.2343 24.3333 60.5692 22.5674C61.9041 20.8016 63.7776 19.5183 65.9065 18.9115C68.0353 18.3047 70.3039 18.4074 72.3692 19.2041C74.4345 20.0008 76.1843 21.4481 77.3542 23.3274Z" fill="#F99D1C"></path>
  <path d="M83.5756 19.5059L88 16.7851C85.4087 12.5798 81.5158 9.33517 76.9124 7.54403C72.3091 5.75289 67.2469 5.51313 62.4949 6.86117C57.7429 8.2092 53.5607 11.0714 50.5835 15.0129C47.6064 18.9544 45.9971 23.76 46 28.6995C46 28.7343 46 28.7726 46 28.811H51.2047C51.2047 28.7726 51.2047 28.7343 51.2047 28.6995C51.2042 24.8931 52.4453 21.1904 54.7397 18.1532C57.0341 15.116 60.2566 12.9102 63.9182 11.8704C67.5799 10.8306 71.4807 11.0135 75.029 12.3915C78.5772 13.7695 81.5791 16.2673 83.5791 19.5059H83.5756Z" fill="#FFC20E"></path>
  <path d="M60.8047 28.811C60.8047 30.9361 61.6489 32.9741 63.1515 34.4768C64.6542 35.9795 66.6922 36.8236 68.8173 36.8236C70.9424 36.8236 72.9804 35.9795 74.4831 34.4768C75.9857 32.9741 76.8299 30.9361 76.8299 28.811H60.8047Z" fill="#05757F"></path>
  <path d="M70.3843 28.8109C70.3507 27.5642 69.8318 26.3798 68.9381 25.51C68.0444 24.6401 66.8465 24.1533 65.5994 24.1533C64.3522 24.1533 63.1543 24.6401 62.2607 25.51C61.367 26.3798 60.8481 27.5642 60.8145 28.8109H70.3843Z" fill="#FFC20E"></path>
  <path d="M74.9154 27.6718L74.2639 28.7866C74.2521 28.8056 74.2357 28.8214 74.2162 28.8323C74.1967 28.8433 74.1748 28.8491 74.1524 28.8493L68.2301 28.9434C68.2018 28.9435 68.1742 28.9349 68.1511 28.9187C68.128 28.9024 68.1106 28.8794 68.1012 28.8528L67.8538 28.3407C67.8467 28.3214 67.8442 28.3008 67.8465 28.2804C67.8488 28.26 67.8558 28.2404 67.8669 28.2232C67.8781 28.2059 67.8931 28.1915 67.9108 28.1811C67.9284 28.1706 67.9483 28.1645 67.9688 28.163L74.7795 27.4663C74.8055 27.4607 74.8326 27.4632 74.8572 27.4733C74.8818 27.4833 74.9028 27.5006 74.9174 27.5228C74.9321 27.5449 74.9397 27.571 74.9394 27.5976C74.939 27.6242 74.9306 27.65 74.9154 27.6718Z" fill="#05757F"></path>
  <path d="M71.1573 22.164C72.1502 22.697 75.5817 24.7559 74.3867 27.212C74.3796 27.2266 74.3687 27.2391 74.3553 27.2482C74.3419 27.2574 74.3263 27.2629 74.3101 27.2642L71.1329 27.4593C71.1149 27.461 71.0967 27.4573 71.0809 27.4485C71.065 27.4398 71.0521 27.4265 71.0438 27.4104C71.0356 27.3943 71.0324 27.376 71.0346 27.358C71.0368 27.3401 71.0443 27.3232 71.0563 27.3095C71.4813 26.8113 72.5264 25.1775 71.0354 22.286C71.0266 22.2689 71.0235 22.2495 71.0265 22.2306C71.0295 22.2116 71.0384 22.1941 71.0519 22.1806C71.0655 22.167 71.083 22.1581 71.1019 22.1551C71.1209 22.1522 71.1402 22.1553 71.1573 22.164Z" fill="#05757F"></path>
  <path d="M70.7865 22.9966L68.7276 27.7067C68.7251 27.7122 68.7242 27.7183 68.7248 27.7243C68.7254 27.7303 68.7276 27.736 68.7311 27.741C68.7346 27.7459 68.7393 27.7498 68.7448 27.7523C68.7503 27.7549 68.7564 27.7559 68.7624 27.7554L70.6192 27.5464C70.6276 27.5464 70.6355 27.5431 70.6414 27.5372C70.6473 27.5313 70.6506 27.5234 70.6506 27.515L70.8527 23.0141C70.8532 23.006 70.8509 22.9979 70.8462 22.9913C70.8415 22.9848 70.8346 22.98 70.8268 22.978C70.8189 22.9759 70.8106 22.9766 70.8033 22.98C70.7959 22.9834 70.79 22.9893 70.7865 22.9966Z" fill="#05757F"></path>
  <path d="M12.9722 54.0014C13.3353 53.9915 13.6968 54.0533 14.0361 54.1832C14.3753 54.3131 14.6856 54.5087 14.9492 54.7586C14.9653 54.773 14.9783 54.7908 14.9871 54.8106C14.996 54.8304 15.0006 54.8518 15.0006 54.8735C15.0006 54.8952 14.996 54.9167 14.9871 54.9365C14.9783 54.9563 14.9653 54.974 14.9492 54.9885L14.4515 55.5023C14.4391 55.5176 14.4234 55.5299 14.4057 55.5383C14.3879 55.5468 14.3685 55.5512 14.3488 55.5512C14.3291 55.5512 14.3097 55.5468 14.2919 55.5383C14.2741 55.5299 14.2584 55.5176 14.246 55.5023C13.902 55.1938 13.4586 55.0192 12.9966 55.0101C12.4945 55.0101 12.013 55.2096 11.6579 55.5646C11.3029 55.9196 11.1035 56.4011 11.1035 56.9032C11.1035 57.4053 11.3029 57.8868 11.6579 58.2418C12.013 58.5968 12.4945 58.7963 12.9966 58.7963C13.4544 58.791 13.8962 58.6266 14.246 58.3311C14.2743 58.3059 14.3109 58.2919 14.3488 58.2919C14.3867 58.2919 14.4233 58.3059 14.4515 58.3311L14.9573 58.8531C14.9717 58.8674 14.9832 58.8845 14.9911 58.9033C14.9989 58.9221 15.0029 58.9422 15.0029 58.9626C15.0029 58.983 14.9989 59.0032 14.9911 59.022C14.9832 59.0408 14.9717 59.0578 14.9573 59.0721C14.6957 59.3305 14.3857 59.5347 14.0451 59.673C13.7044 59.8112 13.3398 59.881 12.9722 59.8781C12.5788 59.89 12.1871 59.8228 11.8202 59.6805C11.4532 59.5382 11.1186 59.3237 10.8361 59.0497C10.5537 58.7756 10.3291 58.4477 10.1757 58.0852C10.0224 57.7228 9.94336 57.3333 9.94336 56.9397C9.94336 56.5462 10.0224 56.1566 10.1757 55.7942C10.3291 55.4317 10.5537 55.1038 10.8361 54.8297C11.1186 54.5557 11.4532 54.3412 11.8202 54.1989C12.1871 54.0566 12.5788 53.9894 12.9722 54.0014Z" fill="white"></path>
  <path d="M16.0254 54.2367C16.0267 54.1962 16.0434 54.1578 16.072 54.1292C16.1007 54.1005 16.1391 54.0839 16.1795 54.0825H16.9395C16.9804 54.0825 17.0196 54.0988 17.0485 54.1277C17.0774 54.1566 17.0936 54.1958 17.0936 54.2367V56.4002H19.7548V54.2367C19.7555 54.1955 19.7723 54.1563 19.8017 54.1275C19.831 54.0987 19.8705 54.0825 19.9116 54.0825H20.6635C20.7039 54.0839 20.7424 54.1005 20.771 54.1292C20.7996 54.1578 20.8163 54.1962 20.8176 54.2367V59.6455C20.8163 59.686 20.7996 59.7244 20.771 59.753C20.7424 59.7816 20.7039 59.7983 20.6635 59.7997H19.9116C19.8705 59.7997 19.831 59.7835 19.8017 59.7547C19.7723 59.7259 19.7555 59.6866 19.7548 59.6455V57.3873H17.0936V59.6428C17.0936 59.6837 17.0774 59.7229 17.0485 59.7518C17.0196 59.7807 16.9804 59.797 16.9395 59.797H16.1795C16.1391 59.7956 16.1007 59.7789 16.072 59.7503C16.0434 59.7217 16.0267 59.6833 16.0254 59.6428V54.2367Z" fill="white"></path>
  <path d="M21.5593 59.5859L24.0988 54.0905C24.1101 54.0636 24.1294 54.0406 24.154 54.0247C24.1786 54.0088 24.2074 54.0006 24.2367 54.0013H24.3178C24.3477 53.9993 24.3775 54.0068 24.4028 54.0229C24.4281 54.0389 24.4476 54.0626 24.4584 54.0905L26.9844 59.5859C26.9966 59.6087 27.0025 59.6343 27.0015 59.6601C27.0004 59.6858 26.9923 59.7109 26.9782 59.7325C26.9641 59.7541 26.9444 59.7715 26.9212 59.7828C26.898 59.7941 26.8722 59.799 26.8465 59.7969H26.1352C26.0835 59.7999 26.0323 59.7855 25.9897 59.7562C25.9471 59.7268 25.9155 59.684 25.8999 59.6346L25.4996 58.753H23.0657L22.6573 59.6346C22.6402 59.683 22.6082 59.7248 22.566 59.7539C22.5237 59.7831 22.4733 59.7981 22.422 59.7969H21.7108C21.684 59.8019 21.6563 59.7992 21.631 59.789C21.6057 59.7789 21.5838 59.7617 21.5679 59.7396C21.552 59.7174 21.5428 59.6912 21.5412 59.664C21.5397 59.6368 21.546 59.6097 21.5593 59.5859ZM25.0751 57.847L24.2637 56.0486H24.2394L23.4281 57.847H25.0751Z" fill="white"></path>
  <path d="M28.3084 54.1231C28.3125 54.088 28.3299 54.0557 28.3571 54.0331C28.3843 54.0104 28.4191 53.9991 28.4544 54.0014H28.5869C28.6153 54.0004 28.6433 54.0075 28.6677 54.0219C28.6922 54.0362 28.712 54.0573 28.7248 54.0826L30.5206 57.9364H30.5449L32.3407 54.0826C32.3531 54.0564 32.3733 54.0346 32.3984 54.0202C32.4235 54.0057 32.4524 53.9991 32.4813 54.0014H32.6111C32.6464 53.9991 32.6813 54.0104 32.7084 54.0331C32.7356 54.0557 32.7531 54.088 32.7571 54.1231L33.7226 59.6077C33.7298 59.6302 33.7314 59.6541 33.7271 59.6773C33.7229 59.7005 33.7129 59.7224 33.6982 59.7408C33.6835 59.7593 33.6645 59.7738 33.6428 59.7832C33.6211 59.7925 33.5974 59.7963 33.5739 59.7943H32.8302C32.7953 59.7917 32.762 59.7787 32.7345 59.757C32.707 59.7353 32.6867 59.7059 32.676 59.6726L32.1946 56.5787H32.1703L30.7423 59.7889C30.7315 59.8168 30.712 59.8405 30.6867 59.8566C30.6614 59.8726 30.6316 59.8802 30.6017 59.8781H30.4557C30.4264 59.8788 30.3976 59.8707 30.373 59.8547C30.3484 59.8388 30.3291 59.8159 30.3178 59.7889L28.8763 56.5814H28.852L28.3787 59.6753C28.371 59.7088 28.3526 59.7388 28.3262 59.7608C28.2998 59.7828 28.2669 59.7955 28.2326 59.797H27.497C27.4734 59.7987 27.4498 59.7946 27.428 59.7853C27.4062 59.776 27.387 59.7616 27.372 59.7434C27.3569 59.7251 27.3464 59.7035 27.3413 59.6804C27.3363 59.6573 27.3368 59.6333 27.3429 59.6104L28.3084 54.1231Z" fill="white"></path>
  <path d="M34.8262 54.2367C34.8262 54.2162 34.8302 54.196 34.8382 54.1771C34.8461 54.1582 34.8577 54.1411 34.8723 54.1267C34.8869 54.1124 34.9042 54.1011 34.9232 54.0935C34.9422 54.0859 34.9626 54.0822 34.983 54.0825H36.8518C37.8227 54.0825 38.5745 54.7343 38.5745 55.5916C38.5549 55.8686 38.4612 56.1352 38.3032 56.3636C38.1453 56.5919 37.9289 56.7736 37.6766 56.8897C38.1093 57.0304 38.7395 57.4712 38.7395 58.223C38.7395 59.1371 37.9552 59.797 36.9573 59.797H34.983C34.9626 59.7973 34.9422 59.7936 34.9232 59.786C34.9042 59.7785 34.8869 59.7672 34.8723 59.7528C34.8577 59.7385 34.8461 59.7213 34.8382 59.7025C34.8302 59.6836 34.8262 59.6633 34.8262 59.6428V54.2367ZM36.7544 56.4814C36.8493 56.4819 36.9433 56.463 37.0307 56.4259C37.118 56.3888 37.1969 56.3343 37.2624 56.2657C37.328 56.1971 37.3789 56.1159 37.412 56.0269C37.4451 55.938 37.4597 55.8432 37.4549 55.7485C37.4592 55.6556 37.4439 55.5628 37.4102 55.4762C37.3764 55.3896 37.3249 55.311 37.2589 55.2455C37.1929 55.18 37.1139 55.1291 37.027 55.096C36.9401 55.0629 36.8473 55.0484 36.7544 55.0534H35.8809V56.4814H36.7544ZM36.868 58.8342C36.9655 58.835 37.0622 58.8162 37.1523 58.7789C37.2424 58.7417 37.3241 58.6868 37.3927 58.6175C37.4613 58.5482 37.5152 58.4659 37.5515 58.3753C37.5877 58.2848 37.6054 58.188 37.6036 58.0905C37.583 57.8877 37.4849 57.7008 37.3296 57.5687C37.1744 57.4367 36.9741 57.3697 36.7707 57.3819H35.8809V58.8342H36.868Z" fill="white"></path>
  <path d="M39.873 54.2367C39.8738 54.1955 39.8906 54.1563 39.9199 54.1275C39.9493 54.0987 39.9888 54.0825 40.0299 54.0825H43.3536C43.3945 54.0825 43.4337 54.0988 43.4626 54.1277C43.4915 54.1566 43.5078 54.1958 43.5078 54.2367V54.9074C43.5078 54.9483 43.4915 54.9875 43.4626 55.0164C43.4337 55.0453 43.3945 55.0615 43.3536 55.0615H40.9359V56.4137H42.9534C42.9943 56.4151 43.0331 56.4322 43.0618 56.4614C43.0905 56.4906 43.1069 56.5297 43.1075 56.5706V57.2467C43.1075 57.2876 43.0913 57.3268 43.0624 57.3557C43.0335 57.3846 42.9943 57.4008 42.9534 57.4008H40.9359V58.8315H43.3536C43.3945 58.8315 43.4337 58.8477 43.4626 58.8766C43.4915 58.9055 43.5078 58.9448 43.5078 58.9856V59.6563C43.5078 59.6972 43.4915 59.7364 43.4626 59.7653C43.4337 59.7942 43.3945 59.8105 43.3536 59.8105H40.0299C39.9888 59.8105 39.9493 59.7943 39.9199 59.7655C39.8906 59.7367 39.8738 59.6975 39.873 59.6563V54.2367Z" fill="white"></path>
  <path d="M44.6738 54.2367C44.6738 54.2162 44.6779 54.196 44.6858 54.1771C44.6937 54.1582 44.7053 54.1411 44.7199 54.1267C44.7345 54.1124 44.7518 54.1011 44.7709 54.0935C44.7899 54.0859 44.8102 54.0822 44.8307 54.0826H47.1646C47.6332 54.0797 48.0838 54.2629 48.4175 54.592C48.7511 54.9211 48.9405 55.3691 48.9441 55.8377C48.9337 56.2028 48.8124 56.5562 48.5965 56.8508C48.3806 57.1454 48.0802 57.3675 47.7352 57.4874L48.8549 59.5617C48.8697 59.5856 48.8777 59.613 48.878 59.6411C48.8784 59.6691 48.8711 59.6967 48.8569 59.721C48.8427 59.7452 48.8221 59.765 48.7975 59.7784C48.7728 59.7918 48.745 59.7983 48.7169 59.797H47.8596C47.8329 59.7987 47.8062 59.7928 47.7827 59.7798C47.7592 59.7669 47.74 59.7475 47.7271 59.724L46.6454 57.5604H45.7394V59.6428C45.7374 59.6835 45.7201 59.722 45.691 59.7505C45.662 59.7791 45.6232 59.7957 45.5825 59.797H44.8334C44.8129 59.7974 44.7926 59.7936 44.7736 59.786C44.7546 59.7785 44.7372 59.7672 44.7226 59.7528C44.708 59.7385 44.6964 59.7213 44.6885 59.7025C44.6806 59.6836 44.6765 59.6633 44.6765 59.6428L44.6738 54.2367ZM47.0754 56.6869C47.2925 56.6813 47.4988 56.591 47.6504 56.4354C47.802 56.2798 47.8868 56.0712 47.8867 55.8539C47.8817 55.6421 47.7941 55.4405 47.6425 55.2925C47.4908 55.1444 47.2873 55.0615 47.0754 55.0616H45.7448V56.6842L47.0754 56.6869Z" fill="white"></path>
  <path d="M54.4375 54.0015C55.0189 53.9999 55.5877 54.1707 56.0721 54.4924C56.5564 54.8141 56.9344 55.2722 57.1584 55.8087C57.3824 56.3453 57.4422 56.9362 57.3304 57.5067C57.2185 58.0773 56.94 58.6019 56.53 59.0141C56.12 59.4264 55.597 59.7078 55.027 59.8228C54.4571 59.9378 53.8659 59.8812 53.3281 59.6602C52.7903 59.4392 52.3302 59.0637 52.0058 58.5811C51.6815 58.0986 51.5075 57.5307 51.5059 56.9493C51.5041 56.563 51.5786 56.1803 51.7251 55.8229C51.8716 55.4655 52.0872 55.1405 52.3596 54.8666C52.6319 54.5928 52.9557 54.3754 53.3123 54.2269C53.6688 54.0784 54.0512 54.0018 54.4375 54.0015ZM54.4375 58.8181C54.8101 58.8202 55.175 58.7115 55.4858 58.5058C55.7965 58.3001 56.0391 58.0067 56.1827 57.6628C56.3263 57.3189 56.3644 56.9401 56.2923 56.5745C56.2201 56.2089 56.0408 55.873 55.7773 55.6094C55.5138 55.3459 55.1779 55.1667 54.8123 55.0945C54.4467 55.0223 54.0679 55.0605 53.724 55.2041C53.3801 55.3477 53.0867 55.5903 52.881 55.901C52.6753 56.2118 52.5666 56.5766 52.5687 56.9493C52.575 57.443 52.7739 57.9146 53.123 58.2637C53.4721 58.6128 53.9438 58.8117 54.4375 58.8181Z" fill="white"></path>
  <path d="M58.4434 54.2367C58.4434 54.1958 58.4596 54.1566 58.4885 54.1277C58.5174 54.0988 58.5566 54.0825 58.5975 54.0825H61.9213C61.9621 54.0825 62.0013 54.0988 62.0303 54.1277C62.0592 54.1566 62.0754 54.1958 62.0754 54.2367V54.9074C62.0754 54.9483 62.0592 54.9875 62.0303 55.0164C62.0013 55.0453 61.9621 55.0615 61.9213 55.0615H59.5035V56.5976H61.521C61.5614 56.599 61.5999 56.6157 61.6285 56.6443C61.6571 56.6729 61.6738 56.7113 61.6751 56.7518V57.4225C61.6738 57.4629 61.6571 57.5014 61.6285 57.53C61.5999 57.5586 61.5614 57.5753 61.521 57.5766H59.5035V59.6428C59.5021 59.6833 59.4855 59.7217 59.4568 59.7503C59.4282 59.7789 59.3898 59.7956 59.3493 59.797H58.5975C58.5566 59.797 58.5174 59.7807 58.4885 59.7518C58.4596 59.7229 58.4434 59.6837 58.4434 59.6428V54.2367Z" fill="white"></path>
  <path d="M67.3824 54.0014C67.7451 53.9917 68.1061 54.0536 68.4448 54.1835C68.7836 54.3134 69.0934 54.5089 69.3566 54.7586C69.3728 54.773 69.3857 54.7908 69.3946 54.8106C69.4035 54.8304 69.408 54.8518 69.408 54.8735C69.408 54.8952 69.4035 54.9167 69.3946 54.9365C69.3857 54.9563 69.3728 54.974 69.3566 54.9885L68.859 55.5023C68.8468 55.5175 68.8314 55.5298 68.8138 55.5383C68.7963 55.5467 68.7771 55.5511 68.7576 55.5511C68.7381 55.5511 68.7189 55.5467 68.7013 55.5383C68.6838 55.5298 68.6683 55.5175 68.6562 55.5023C68.3121 55.1938 67.8687 55.0192 67.4067 55.0101C66.9046 55.0101 66.4231 55.2096 66.0681 55.5646C65.7131 55.9196 65.5136 56.4011 65.5136 56.9032C65.5136 57.4053 65.7131 57.8868 66.0681 58.2418C66.4231 58.5968 66.9046 58.7963 67.4067 58.7963C67.8646 58.791 68.3063 58.6266 68.6562 58.3311C68.6837 58.3055 68.7199 58.2912 68.7576 58.2912C68.7952 58.2912 68.8315 58.3055 68.859 58.3311L69.3647 58.8531C69.3792 58.8674 69.3907 58.8845 69.3985 58.9033C69.4064 58.9221 69.4104 58.9422 69.4104 58.9626C69.4104 58.983 69.4064 59.0032 69.3985 59.022C69.3907 59.0408 69.3792 59.0578 69.3647 59.0721C69.1036 59.3303 68.794 59.5343 68.4539 59.6726C68.1137 59.8109 67.7496 59.8807 67.3824 59.8781C66.989 59.89 66.5972 59.8228 66.2303 59.6805C65.8634 59.5382 65.5288 59.3237 65.2463 59.0497C64.9638 58.7756 64.7393 58.4477 64.5859 58.0852C64.4325 57.7228 64.3535 57.3333 64.3535 56.9397C64.3535 56.5462 64.4325 56.1566 64.5859 55.7942C64.7393 55.4317 64.9638 55.1038 65.2463 54.8297C65.5288 54.5557 65.8634 54.3412 66.2303 54.1989C66.5972 54.0566 66.989 53.9894 67.3824 54.0014Z" fill="white"></path>
  <path d="M72.9316 54.0015C73.513 53.9999 74.0819 54.1707 74.5662 54.4924C75.0505 54.8141 75.4286 55.2722 75.6526 55.8087C75.8765 56.3453 75.9364 56.9362 75.8245 57.5067C75.7127 58.0773 75.4341 58.6019 75.0241 59.0141C74.6142 59.4264 74.0911 59.7078 73.5212 59.8228C72.9513 59.9378 72.36 59.8812 71.8223 59.6602C71.2845 59.4392 70.8243 59.0637 70.5 58.5811C70.1756 58.0986 70.0016 57.5307 70 56.9493C69.9983 56.563 70.0727 56.1803 70.2192 55.8229C70.3657 55.4655 70.5814 55.1405 70.8537 54.8666C71.1261 54.5928 71.4498 54.3754 71.8064 54.2269C72.163 54.0784 72.5454 54.0018 72.9316 54.0015ZM72.9316 58.8181C73.3044 58.8207 73.6695 58.7125 73.9806 58.5071C74.2917 58.3017 74.5347 58.0085 74.6788 57.6647C74.8228 57.3208 74.8613 56.9419 74.7894 56.5761C74.7176 56.2104 74.5385 55.8742 74.2751 55.6104C74.0117 55.3466 73.6758 55.1671 73.3102 55.0947C72.9445 55.0223 72.5655 55.0603 72.2215 55.2038C71.8774 55.3474 71.5839 55.5899 71.378 55.9007C71.1722 56.2115 71.0634 56.5765 71.0656 56.9493C71.0719 57.4425 71.2704 57.9138 71.6189 58.2628C71.9675 58.6118 72.4384 58.811 72.9316 58.8181Z" fill="white"></path>
  <path d="M77.5345 54.1233C77.5386 54.0881 77.556 54.0559 77.5832 54.0332C77.6104 54.0106 77.6452 53.9993 77.6805 54.0016H77.8103C77.8391 54 77.8677 54.0069 77.8927 54.0213C77.9177 54.0357 77.9379 54.057 77.951 54.0827L79.7467 57.9365H79.771L81.5668 54.0827C81.5789 54.0563 81.599 54.0343 81.6242 54.0198C81.6494 54.0053 81.6785 53.9989 81.7074 54.0016H81.8372C81.8725 53.9993 81.9074 54.0106 81.9345 54.0332C81.9617 54.0559 81.9792 54.0881 81.9833 54.1233L82.946 59.6078C82.9539 59.6301 82.9559 59.654 82.9521 59.6773C82.9483 59.7006 82.9386 59.7225 82.9241 59.7411C82.9095 59.7597 82.8906 59.7743 82.8689 59.7837C82.8472 59.793 82.8235 59.7967 82.8 59.7944H82.0563C82.0214 59.7918 81.9881 59.7788 81.9606 59.7571C81.9332 59.7354 81.9128 59.7061 81.9021 59.6727L81.4207 56.5789H81.3964L79.9658 59.7863C79.9558 59.8143 79.9368 59.8382 79.9119 59.8543C79.887 59.8704 79.8574 59.8779 79.8278 59.8756H79.6818C79.6525 59.8763 79.6237 59.8681 79.5991 59.8522C79.5745 59.8363 79.5553 59.8133 79.5439 59.7863L78.097 56.5816H78.0727L77.5994 59.6754C77.5917 59.7089 77.5733 59.739 77.5469 59.7609C77.5205 59.7829 77.4877 59.7956 77.4533 59.7971H76.7177C76.6941 59.7988 76.6705 59.7948 76.6487 59.7855C76.627 59.7761 76.6077 59.7618 76.5927 59.7435C76.5776 59.7253 76.5671 59.7037 76.562 59.6805C76.557 59.6574 76.5575 59.6334 76.5636 59.6105L77.5345 54.1233Z" fill="white"></path>
  <path d="M84.6615 54.1231C84.6656 54.0879 84.683 54.0557 84.7102 54.033C84.7374 54.0104 84.7722 53.999 84.8075 54.0014H84.9373C84.966 54.0005 84.9944 54.0076 85.0192 54.0219C85.044 54.0362 85.0644 54.0572 85.078 54.0825L86.8737 57.9363H86.8981L88.6938 54.0825C88.7058 54.0565 88.7254 54.0349 88.7501 54.0204C88.7747 54.0059 88.8032 53.9993 88.8317 54.0014H88.9642C88.9995 53.999 89.0344 54.0104 89.0616 54.033C89.0887 54.0557 89.1062 54.0879 89.1103 54.1231L90.073 59.6076C90.0809 59.6299 90.083 59.6538 90.0791 59.6771C90.0753 59.7004 90.0657 59.7223 90.0511 59.7409C90.0366 59.7595 90.0176 59.7741 89.9959 59.7834C89.9742 59.7928 89.9505 59.7965 89.927 59.7942H89.186C89.1511 59.7916 89.1178 59.7786 89.0903 59.7569C89.0629 59.7352 89.0425 59.7059 89.0318 59.6725L88.5504 56.5787H88.5261L87.0955 59.7861C87.0851 59.8138 87.0661 59.8374 87.0412 59.8535C87.0164 59.8696 86.9871 59.8772 86.9575 59.8754H86.8115C86.7818 59.8766 86.7524 59.8687 86.7272 59.8528C86.7021 59.8368 86.6824 59.8136 86.6709 59.7861L85.2267 56.5787H85.2024L84.7291 59.6725C84.7213 59.7064 84.7025 59.7368 84.6756 59.7588C84.6486 59.7809 84.6151 59.7933 84.5804 59.7942H83.8475C83.8236 59.7963 83.7996 59.7927 83.7775 59.7836C83.7554 59.7744 83.7358 59.7601 83.7204 59.7418C83.705 59.7235 83.6943 59.7017 83.6891 59.6784C83.6839 59.655 83.6844 59.6307 83.6906 59.6076L84.6615 54.1231Z" fill="white"></path>
  <path d="M91.1895 54.2367C91.1895 54.1958 91.2057 54.1566 91.2346 54.1277C91.2635 54.0988 91.3027 54.0825 91.3436 54.0825H94.6673C94.7082 54.0825 94.7474 54.0988 94.7763 54.1277C94.8053 54.1566 94.8215 54.1958 94.8215 54.2367V54.9074C94.8215 54.9483 94.8053 54.9875 94.7763 55.0164C94.7474 55.0453 94.7082 55.0615 94.6673 55.0615H92.2496V56.4137H94.2671C94.3083 56.4151 94.3474 56.432 94.3765 56.4612C94.4056 56.4903 94.4226 56.5294 94.4239 56.5706V57.2467C94.4232 57.2878 94.4064 57.327 94.3771 57.3559C94.3477 57.3847 94.3082 57.4009 94.2671 57.4008H92.2496V58.8315H94.6673C94.7082 58.8315 94.7474 58.8477 94.7763 58.8766C94.8053 58.9055 94.8215 58.9448 94.8215 58.9856V59.6563C94.8215 59.6972 94.8053 59.7364 94.7763 59.7653C94.7474 59.7942 94.7082 59.8105 94.6673 59.8105H91.349C91.3081 59.8105 91.2689 59.7942 91.24 59.7653C91.2111 59.7364 91.1949 59.6972 91.1949 59.6563L91.1895 54.2367Z" fill="white"></path>
  <path d="M95.9902 54.2366C95.9902 54.1958 96.0065 54.1565 96.0354 54.1276C96.0643 54.0987 96.1035 54.0825 96.1444 54.0825H98.4783C98.7117 54.0789 98.9435 54.1216 99.1603 54.208C99.3772 54.2944 99.5747 54.4229 99.7417 54.5861C99.9086 54.7493 100.042 54.9439 100.133 55.1587C100.224 55.3735 100.272 55.6042 100.274 55.8377C100.263 56.2026 100.141 56.5555 99.9255 56.85C99.7097 57.1445 99.4098 57.3667 99.0652 57.4874L100.182 59.5616C100.198 59.5853 100.207 59.6129 100.208 59.6414C100.209 59.6699 100.201 59.698 100.187 59.7226C100.173 59.7471 100.152 59.7671 100.126 59.7803C100.101 59.7934 100.073 59.7992 100.044 59.7969H99.1869C99.1605 59.7985 99.1343 59.7924 99.1112 59.7794C99.0882 59.7665 99.0694 59.7472 99.057 59.7239L97.9753 57.5604H97.0693V59.6428C97.0679 59.6832 97.0513 59.7217 97.0226 59.7503C96.994 59.7789 96.9556 59.7956 96.9151 59.7969H96.1633C96.1224 59.7969 96.0832 59.7807 96.0543 59.7518C96.0254 59.7229 96.0092 59.6837 96.0092 59.6428L95.9902 54.2366ZM98.3809 56.6868C98.5981 56.6812 98.8044 56.591 98.956 56.4354C99.1076 56.2798 99.1923 56.0711 99.1923 55.8539C99.1873 55.642 99.0997 55.4405 98.948 55.2924C98.7964 55.1443 98.5929 55.0614 98.3809 55.0615H97.0504V56.6841L98.3809 56.6868Z" fill="white"></path>
  <path d="M103.957 54.0014C104.319 53.9915 104.68 54.0534 105.019 54.1833C105.358 54.3132 105.668 54.5087 105.931 54.7586C105.947 54.773 105.96 54.7908 105.969 54.8106C105.978 54.8304 105.982 54.8518 105.982 54.8735C105.982 54.8952 105.978 54.9167 105.969 54.9365C105.96 54.9563 105.947 54.974 105.931 54.9885L105.433 55.5023C105.421 55.5175 105.406 55.5298 105.388 55.5383C105.371 55.5467 105.351 55.5511 105.332 55.5511C105.312 55.5511 105.293 55.5467 105.276 55.5383C105.258 55.5298 105.243 55.5175 105.23 55.5023C104.886 55.1938 104.443 55.0192 103.981 55.0101C103.479 55.0101 102.997 55.2096 102.642 55.5646C102.287 55.9196 102.088 56.4011 102.088 56.9032C102.088 57.4053 102.287 57.8868 102.642 58.2418C102.997 58.5968 103.479 58.7963 103.981 58.7963C104.439 58.791 104.881 58.6266 105.23 58.3311C105.258 58.3055 105.294 58.2912 105.332 58.2912C105.369 58.2912 105.406 58.3055 105.433 58.3311L105.952 58.8666C105.967 58.8809 105.978 58.898 105.986 58.9168C105.994 58.9356 105.998 58.9558 105.998 58.9761C105.998 58.9965 105.994 59.0167 105.986 59.0355C105.978 59.0543 105.967 59.0713 105.952 59.0857C105.689 59.343 105.376 59.5455 105.034 59.6815C104.691 59.8175 104.325 59.8843 103.957 59.8781C103.563 59.89 103.171 59.8228 102.805 59.6805C102.438 59.5382 102.103 59.3237 101.821 59.0497C101.538 58.7756 101.313 58.4477 101.16 58.0852C101.007 57.7228 100.928 57.3333 100.928 56.9397C100.928 56.5462 101.007 56.1566 101.16 55.7942C101.313 55.4317 101.538 55.1038 101.821 54.8297C102.103 54.5557 102.438 54.3412 102.805 54.1989C103.171 54.0566 103.563 53.9894 103.957 54.0014Z" fill="white"></path>
  <path d="M107.008 54.2367C107.008 54.2164 107.012 54.1964 107.02 54.1777C107.027 54.159 107.039 54.142 107.053 54.1277C107.067 54.1134 107.084 54.102 107.103 54.0943C107.122 54.0865 107.142 54.0825 107.162 54.0825H110.486C110.527 54.0825 110.566 54.0987 110.596 54.1275C110.625 54.1563 110.642 54.1955 110.643 54.2367V54.9074C110.642 54.9485 110.625 54.9877 110.596 55.0165C110.566 55.0454 110.527 55.0615 110.486 55.0615H108.071V56.4137H110.085C110.127 56.4151 110.166 56.432 110.195 56.4612C110.224 56.4903 110.241 56.5294 110.242 56.5706V57.2467C110.242 57.2878 110.225 57.327 110.195 57.3559C110.166 57.3847 110.127 57.4009 110.085 57.4008H108.071V58.8315H110.486C110.527 58.8315 110.566 58.8476 110.596 58.8765C110.625 58.9053 110.642 58.9445 110.643 58.9856V59.6563C110.642 59.6975 110.625 59.7367 110.596 59.7655C110.566 59.7943 110.527 59.8105 110.486 59.8105H107.162C107.142 59.8105 107.122 59.8065 107.103 59.7988C107.084 59.791 107.067 59.7797 107.053 59.7653C107.039 59.751 107.027 59.734 107.02 59.7153C107.012 59.6966 107.008 59.6766 107.008 59.6563V54.2367Z" fill="white"></path>
  <path d="M116.132 54.0012C116.714 53.9991 117.283 54.1695 117.767 54.4908C118.252 54.8122 118.63 55.2701 118.855 55.8066C119.079 56.3431 119.14 56.9341 119.028 57.5048C118.916 58.0756 118.638 58.6004 118.228 59.0129C117.818 59.4254 117.295 59.7071 116.725 59.8224C116.155 59.9376 115.564 59.8812 115.026 59.6602C114.488 59.4393 114.028 59.0638 113.703 58.5812C113.379 58.0986 113.205 57.5306 113.203 56.9491C113.201 56.563 113.276 56.1805 113.422 55.8232C113.568 55.466 113.784 55.1412 114.056 54.8674C114.328 54.5935 114.651 54.3761 115.008 54.2274C115.364 54.0788 115.746 54.0019 116.132 54.0012ZM116.132 58.8178C116.505 58.82 116.87 58.7113 117.18 58.5056C117.491 58.2999 117.734 58.0064 117.877 57.6625C118.021 57.3187 118.059 56.9398 117.987 56.5742C117.915 56.2086 117.735 55.8727 117.472 55.6092C117.208 55.3457 116.872 55.1665 116.507 55.0943C116.141 55.0221 115.762 55.0602 115.419 55.2038C115.075 55.3474 114.781 55.59 114.576 55.9008C114.37 56.2115 114.261 56.5764 114.263 56.9491C114.27 57.4427 114.469 57.9144 114.818 58.2635C115.167 58.6126 115.638 58.8115 116.132 58.8178Z" fill="white"></path>
  <path d="M120.141 54.2367C120.141 54.1958 120.157 54.1566 120.186 54.1277C120.215 54.0988 120.254 54.0825 120.295 54.0825H123.619C123.66 54.0825 123.699 54.0987 123.729 54.1275C123.758 54.1563 123.775 54.1955 123.776 54.2367V54.9074C123.775 54.9485 123.758 54.9877 123.729 55.0165C123.699 55.0454 123.66 55.0615 123.619 55.0615H121.204V56.5976H123.219C123.259 56.5989 123.298 56.6155 123.327 56.6441C123.356 56.6726 123.373 56.7111 123.375 56.7518V57.4225C123.373 57.4632 123.356 57.5016 123.327 57.5302C123.298 57.5587 123.259 57.5753 123.219 57.5766H121.204V59.6428C121.202 59.6835 121.184 59.722 121.155 59.7505C121.126 59.7791 121.088 59.7957 121.047 59.797H120.287C120.246 59.797 120.207 59.7807 120.178 59.7518C120.149 59.7229 120.133 59.6837 120.133 59.6428L120.141 54.2367Z" fill="white"></path>
  <path d="M16.0902 63.9346C16.9489 63.9123 17.8036 64.0594 18.6055 64.3675C19.4073 64.6756 20.1406 65.1387 20.7634 65.7303C20.8031 65.7627 20.8355 65.8032 20.8583 65.8491C20.881 65.895 20.8938 65.9452 20.8956 65.9965C20.8974 66.0477 20.8882 66.0987 20.8687 66.1461C20.8491 66.1934 20.8197 66.2361 20.7824 66.2712L19.6059 67.4882C19.5768 67.5243 19.5399 67.5535 19.498 67.5735C19.4562 67.5935 19.4103 67.6039 19.3639 67.6039C19.3175 67.6039 19.2716 67.5935 19.2298 67.5735C19.1879 67.5535 19.151 67.5243 19.1218 67.4882C18.2991 66.7634 17.2434 66.3584 16.147 66.3469C13.6751 66.3469 11.8415 68.4131 11.8415 70.8471C11.8415 73.2811 13.6941 75.3067 16.1686 75.3067C17.2508 75.2979 18.2957 74.9104 19.1218 74.2114C19.1881 74.1511 19.2744 74.1178 19.3639 74.1178C19.4534 74.1178 19.5397 74.1511 19.6059 74.2114L20.8013 75.4473C20.8345 75.4827 20.8604 75.5244 20.8774 75.5698C20.8945 75.6153 20.9023 75.6637 20.9006 75.7122C20.8988 75.7607 20.8874 75.8084 20.8672 75.8526C20.8469 75.8967 20.8181 75.9363 20.7824 75.9693C19.5272 77.1892 17.8404 77.863 16.0902 77.8434C15.1657 77.8617 14.2469 77.6953 13.3876 77.3542C12.5282 77.013 11.7455 76.5038 11.0852 75.8565C10.425 75.2092 9.90052 74.4367 9.54247 73.5842C9.18442 72.7317 9 71.8163 9 70.8917C9 69.9671 9.18442 69.0517 9.54247 68.1992C9.90052 67.3467 10.425 66.5742 11.0852 65.9269C11.7455 65.2796 12.5282 64.7704 13.3876 64.4292C14.2469 64.0881 15.1657 63.9217 16.0902 63.94V63.9346Z" fill="white"></path>
  <path d="M21.5554 77.1406L27.5619 64.1594C27.5886 64.095 27.6341 64.0401 27.6925 64.002C27.7509 63.9638 27.8195 63.9442 27.8892 63.9457H28.0812C28.1518 63.9412 28.222 63.9596 28.2815 63.9981C28.3409 64.0365 28.3863 64.0931 28.4111 64.1594L34.3609 77.1406C34.3896 77.1949 34.4032 77.2559 34.4003 77.3173C34.3974 77.3787 34.3781 77.4382 34.3444 77.4896C34.3107 77.5409 34.2639 77.5823 34.2087 77.6094C34.1536 77.6365 34.0922 77.6483 34.0309 77.6436H32.3515C32.2285 77.6505 32.1066 77.6163 32.0053 77.5462C31.9039 77.4762 31.8287 77.3744 31.7917 77.2569L30.8451 75.1718H25.0685L24.1246 77.2569C24.0837 77.372 24.0077 77.4713 23.9072 77.5407C23.8067 77.6101 23.6869 77.6461 23.5648 77.6436H21.8827C21.8213 77.6487 21.7598 77.6371 21.7045 77.6101C21.6492 77.583 21.6023 77.5414 21.5688 77.4899C21.5352 77.4383 21.5163 77.3786 21.5139 77.3171C21.5116 77.2556 21.5259 77.1946 21.5554 77.1406ZM29.8959 73.0299L27.9649 68.7812H27.9081L26.015 73.0299H29.8959Z" fill="white"></path>
  <path d="M36.1172 64.4946C36.1172 64.3976 36.1556 64.3044 36.224 64.2355C36.2924 64.1666 36.3852 64.1275 36.4823 64.1268H41.0203C41.5949 64.1112 42.1668 64.2108 42.7023 64.4196C43.2379 64.6284 43.7262 64.9423 44.1386 65.3427C44.5509 65.7431 44.879 66.222 45.1034 66.7512C45.3279 67.2804 45.4442 67.8491 45.4454 68.4239C45.4467 68.9987 45.3329 69.568 45.1108 70.0981C44.8887 70.6283 44.5627 71.1086 44.1521 71.5109C43.7415 71.9131 43.2546 72.2291 42.72 72.4403C42.1854 72.6515 41.6139 72.7535 41.0392 72.7404H38.6269V77.2784C38.6235 77.3746 38.5836 77.466 38.5152 77.5338C38.4469 77.6016 38.3553 77.6408 38.2591 77.6435H36.4823C36.4343 77.6435 36.3869 77.6341 36.3426 77.6157C36.2983 77.5974 36.258 77.5705 36.2241 77.5366C36.1902 77.5027 36.1633 77.4625 36.145 77.4182C36.1266 77.3739 36.1172 77.3264 36.1172 77.2784V64.4946ZM40.8662 70.3849C41.129 70.3845 41.3893 70.3322 41.6318 70.2308C41.8744 70.1295 42.0945 69.9812 42.2795 69.7944C42.4646 69.6076 42.6108 69.3861 42.7098 69.1426C42.8089 68.8991 42.8588 68.6384 42.8566 68.3755C42.8496 68.1216 42.7925 67.8717 42.6885 67.64C42.5846 67.4084 42.4358 67.1995 42.2508 67.0256C42.0658 66.8517 41.8482 66.716 41.6106 66.6265C41.3729 66.537 41.1199 66.4954 40.8662 66.504H38.6269V70.3849H40.8662Z" fill="white"></path>
  <path d="M47.5391 64.4945C47.5391 64.3974 47.5774 64.3043 47.6458 64.2354C47.7142 64.1665 47.8071 64.1274 47.9042 64.1267H55.7632C55.8608 64.1267 55.9543 64.1655 56.0233 64.2344C56.0923 64.3034 56.131 64.397 56.131 64.4945V66.0766C56.1314 66.125 56.1221 66.173 56.1037 66.2178C56.0854 66.2626 56.0583 66.3032 56.0241 66.3375C55.9899 66.3717 55.9492 66.3988 55.9044 66.4171C55.8596 66.4355 55.8116 66.4448 55.7632 66.4444H50.0596V69.614H54.841C54.9377 69.6167 55.0297 69.6563 55.0981 69.7247C55.1665 69.7931 55.2061 69.8851 55.2088 69.9818V71.5828C55.2092 71.6312 55.1999 71.6792 55.1815 71.724C55.1632 71.7688 55.1361 71.8095 55.1019 71.8437C55.0677 71.8779 55.027 71.905 54.9822 71.9233C54.9374 71.9417 54.8894 71.951 54.841 71.9506H50.0596V75.3311H55.774C55.8222 75.3308 55.87 75.34 55.9146 75.3581C55.9592 75.3763 55.9998 75.4032 56.0339 75.4371C56.0681 75.471 56.0953 75.5114 56.1138 75.5559C56.1323 75.6004 56.1418 75.6481 56.1418 75.6962V77.281C56.1418 77.3292 56.1323 77.3769 56.1138 77.4214C56.0953 77.4658 56.0681 77.5062 56.0339 77.5401C55.9998 77.5741 55.9592 77.6009 55.9146 77.6191C55.87 77.6373 55.8222 77.6465 55.774 77.6461H47.915C47.8182 77.6461 47.7253 77.6077 47.6568 77.5392C47.5883 77.4707 47.5499 77.3779 47.5499 77.281L47.5391 64.4945Z" fill="white"></path>
  <path d="M69.1566 63.9348C70.0149 63.9126 70.8692 64.0597 71.6706 64.3679C72.472 64.676 73.2048 65.139 73.8271 65.7305C73.8674 65.7625 73.9003 65.8027 73.9236 65.8485C73.9469 65.8944 73.96 65.9447 73.9621 65.996C73.9641 66.0474 73.9551 66.0986 73.9355 66.1461C73.916 66.1936 73.8864 66.2364 73.8488 66.2714L72.6696 67.4884C72.6405 67.5245 72.6036 67.5537 72.5617 67.5737C72.5199 67.5937 72.474 67.6041 72.4276 67.6041C72.3812 67.6041 72.3353 67.5937 72.2935 67.5737C72.2516 67.5537 72.2147 67.5245 72.1856 67.4884C71.3633 66.7628 70.3072 66.3577 69.2107 66.3472C66.7389 66.3472 64.9052 68.4133 64.9052 70.8473C64.9052 73.2813 66.7578 75.3069 69.2323 75.3069C70.3146 75.2986 71.3596 74.911 72.1856 74.2116C72.2518 74.1514 72.3381 74.118 72.4276 74.118C72.5171 74.118 72.6034 74.1514 72.6696 74.2116L73.8677 75.4475C73.9341 75.5194 73.9694 75.6146 73.9658 75.7124C73.9623 75.8102 73.9202 75.9026 73.8488 75.9695C72.593 77.1884 70.9066 77.862 69.1566 77.8436C68.2322 77.8619 67.3133 77.6956 66.454 77.3544C65.5946 77.0132 64.8119 76.5041 64.1516 75.8567C63.4914 75.2094 62.9669 74.4369 62.6089 73.5844C62.2508 72.7319 62.0664 71.8166 62.0664 70.8919C62.0664 69.9673 62.2508 69.052 62.6089 68.1995C62.9669 67.347 63.4914 66.5745 64.1516 65.9271C64.8119 65.2798 65.5946 64.7706 66.454 64.4295C67.3133 64.0883 68.2322 63.922 69.1566 63.9402V63.9348Z" fill="white"></path>
  <path d="M81.8307 63.9346C83.206 63.9309 84.5515 64.3351 85.6971 65.0961C86.8426 65.8571 87.7368 66.9407 88.2664 68.21C88.796 69.4792 88.9374 70.877 88.6725 72.2265C88.4077 73.5761 87.7486 74.8168 86.7786 75.7918C85.8086 76.7667 84.5712 77.4321 83.223 77.7037C81.8748 77.9754 80.4763 77.8411 79.2044 77.3179C77.9325 76.7947 76.8444 75.906 76.0776 74.7643C75.3108 73.6226 74.8998 72.2792 74.8965 70.9039C74.8926 69.9905 75.0691 69.0854 75.4157 68.2404C75.7624 67.3953 76.2724 66.627 76.9166 65.9796C77.5608 65.3321 78.3265 64.8181 79.1698 64.4672C80.0131 64.1163 80.9173 63.9353 81.8307 63.9346ZM81.8307 75.3283C82.7112 75.3326 83.5732 75.0752 84.3071 74.5887C85.0411 74.1022 85.6139 73.4087 85.953 72.596C86.2921 71.7834 86.3821 70.8883 86.2115 70.0245C86.041 69.1606 85.6176 68.3669 84.9952 67.744C84.3727 67.1212 83.5793 66.6974 82.7155 66.5263C81.8518 66.3552 80.9566 66.4447 80.1438 66.7832C79.3309 67.1218 78.637 67.6943 78.1501 68.4279C77.6632 69.1616 77.4052 70.0234 77.409 70.9039C77.416 72.0747 77.8841 73.1955 78.7117 74.0237C79.5393 74.8518 80.6599 75.3205 81.8307 75.3283Z" fill="white"></path>
  <path d="M90.7012 64.4944C90.7012 64.4452 90.711 64.3965 90.7302 64.3511C90.7493 64.3058 90.7774 64.2647 90.8127 64.2304C90.848 64.1962 90.8898 64.1693 90.9357 64.1515C90.9816 64.1336 91.0306 64.1252 91.0798 64.1266H96.6022C97.7104 64.1201 98.7759 64.5536 99.5649 65.3319C100.354 66.1102 100.802 67.1697 100.81 68.2779C100.81 70.0547 99.6339 71.5043 97.9544 72.1804L100.599 77.0835C100.635 77.1403 100.655 77.2058 100.656 77.273C100.657 77.3402 100.64 77.4064 100.605 77.4642C100.571 77.5221 100.522 77.5695 100.463 77.6011C100.403 77.6327 100.336 77.6473 100.269 77.6433H98.2438C98.181 77.6463 98.1186 77.6316 98.0637 77.601C98.0087 77.5705 97.9634 77.5252 97.9328 77.4702L95.3663 72.3535H93.2217V77.2782C93.2183 77.374 93.1788 77.4649 93.111 77.5327C93.0433 77.6004 92.9524 77.64 92.8566 77.6433H91.0798C91.0316 77.6437 90.9839 77.6345 90.9392 77.6163C90.8946 77.5981 90.8541 77.5713 90.8199 77.5374C90.7857 77.5034 90.7586 77.463 90.74 77.4186C90.7215 77.3741 90.712 77.3264 90.712 77.2782L90.7012 64.4944ZM96.3805 70.2873C96.8929 70.2732 97.3796 70.0595 97.7368 69.6917C98.094 69.3239 98.2934 68.8312 98.2925 68.3185C98.2805 67.8186 98.0741 67.3432 97.717 66.9932C97.3599 66.6432 96.8804 66.4463 96.3805 66.4443H93.2433V70.2873H96.3805Z" fill="white"></path>
  <path d="M101.803 77.1406L107.807 64.1593C107.834 64.0947 107.88 64.0397 107.939 64.0016C107.998 63.9635 108.067 63.944 108.137 63.9457H108.329C108.4 63.9414 108.469 63.9598 108.528 63.9983C108.587 64.0368 108.632 64.0933 108.656 64.1593L114.606 77.1406C114.636 77.1946 114.65 77.2555 114.648 77.317C114.645 77.3785 114.626 77.4382 114.593 77.4898C114.559 77.5414 114.512 77.5829 114.457 77.61C114.402 77.6371 114.34 77.6487 114.279 77.6436H112.6C112.477 77.6505 112.355 77.6162 112.253 77.5462C112.152 77.4762 112.077 77.3744 112.04 77.2569L111.093 75.1717H105.317L104.37 77.2569C104.329 77.3722 104.253 77.4717 104.153 77.5412C104.052 77.6106 103.932 77.6465 103.81 77.6436H102.131C102.069 77.6487 102.008 77.6371 101.953 77.61C101.897 77.5829 101.85 77.5414 101.817 77.4898C101.783 77.4382 101.764 77.3785 101.762 77.317C101.76 77.2555 101.774 77.1946 101.803 77.1406ZM110.144 73.0298L108.213 68.7812H108.156L106.263 73.0298H110.144Z" fill="white"></path>
  <path d="M116.363 64.4945C116.363 64.397 116.402 64.3034 116.471 64.2344C116.54 64.1655 116.634 64.1267 116.731 64.1267H118.508C118.604 64.1307 118.695 64.1707 118.764 64.2389C118.832 64.307 118.872 64.3982 118.876 64.4945V75.3284H123.803C123.851 75.3281 123.899 75.3372 123.944 75.3554C123.988 75.3736 124.029 75.4005 124.063 75.4344C124.097 75.4683 124.124 75.5087 124.143 75.5532C124.161 75.5977 124.171 75.6454 124.171 75.6935V77.2783C124.171 77.3265 124.161 77.3742 124.143 77.4187C124.124 77.4631 124.097 77.5035 124.063 77.5374C124.029 77.5714 123.988 77.5982 123.944 77.6164C123.899 77.6346 123.851 77.6438 123.803 77.6434H116.731C116.683 77.6438 116.635 77.6346 116.591 77.6164C116.546 77.5982 116.505 77.5714 116.471 77.5374C116.437 77.5035 116.41 77.4631 116.391 77.4187C116.373 77.3742 116.363 77.3265 116.363 77.2783V64.4945Z" fill="white"></path>
</svg>
