<?xml version="1.0" encoding="UTF-8"?>
<svg xmlns="http://www.w3.org/2000/svg" width="738" height="5" viewBox="0 0 738 5" fill="none">
  <path d="M645.753 1.27579L553.498 0.57222C492.003 0.168842 430.499 0.196999 368.996 0C307.492 0.20638 245.997 0.168851 184.493 0.58161L92.2467 1.28518C61.4948 1.69794 30.743 1.94183 0 2.50468C30.7519 3.06753 61.5037 3.31145 92.2467 3.72421L184.493 4.41839C245.997 4.83115 307.492 4.79362 368.996 5C430.49 4.803 491.994 4.82178 553.498 4.42778L645.753 3.72421C676.505 3.31145 707.257 3.06755 738 2.49532C707.248 1.92309 676.505 1.67916 645.753 1.2664V1.27579Z" fill="white"></path>
</svg>
