<?xml version="1.0" encoding="UTF-8"?>
<svg xmlns="http://www.w3.org/2000/svg" width="144" height="56" viewBox="0 0 144 56" fill="none">
  <path d="M80.3424 32.7743H62.7621C60.2621 32.7743 58.7299 31.0404 58.7299 29.1453C58.7299 28.0163 59.2541 26.847 60.4637 25.8389L79.9391 10.0328C81.2698 8.94407 82.7617 8.58118 83.7294 8.58118C86.1487 8.58118 88.3261 10.0328 88.3261 13.6214V26.1615H96.0275L91.1486 32.7743H88.3261V36H80.3424V32.7743ZM80.3424 26.1615V22.1293C80.3424 20.5164 80.3827 19.5487 80.5037 18.6213C79.8182 19.3068 78.8908 20.1132 77.5602 21.2019L74.5763 23.5809C73.0844 24.7905 71.9554 25.6776 70.9474 26.3228C72.0764 26.2018 73.5683 26.1615 75.5441 26.1615H80.3424ZM95.9453 32.5726C95.9453 30.0727 97.9614 28.6211 100.461 28.6211C103.002 28.6211 105.018 30.0727 105.018 32.5726C105.018 35.0323 103.002 36.4435 100.461 36.4435C97.9614 36.4435 95.9453 35.0323 95.9453 32.5726ZM129.579 36H116.394C107.886 36 105.467 32.613 105.467 28.1372C105.467 24.9115 107.321 22.8148 109.7 22.1293C107.805 21.4438 105.991 19.6697 105.991 16.4842C105.991 11.5247 110.144 9.02471 116.595 9.02471H129.377C135.829 9.02471 139.982 11.5247 139.982 16.4842C139.982 19.6697 138.168 21.4438 136.272 22.1293C138.651 22.8148 140.506 24.9115 140.506 28.1372C140.506 32.613 138.087 36 129.579 36ZM129.619 25.355H116.354C114.579 25.355 113.773 26.0002 113.773 27.1695C113.773 28.4195 114.579 29.0647 116.354 29.0647H129.619C131.394 29.0647 132.2 28.4195 132.2 27.1695C132.2 26.0002 131.394 25.355 129.619 25.355ZM129.74 16.0407H116.233C115.063 16.0407 113.934 16.4439 113.934 17.7745C113.934 19.1455 115.023 19.589 116.233 19.589H129.74C130.95 19.589 132.039 19.1455 132.039 17.7745C132.039 16.4439 130.91 16.0407 129.74 16.0407Z" fill="white"></path>
  <path d="M45.3698 32.8201C45.3698 20.391 35.2937 10.3149 22.8646 10.3149C10.4354 10.3149 0.359375 20.391 0.359375 32.8201C0.359375 43.3742 7.62585 52.2304 17.4282 54.6628V39.6977H12.7876V32.8201H17.4282V29.8566C17.4282 22.1968 20.8949 18.6464 28.4152 18.6464C29.8412 18.6464 32.3014 18.9263 33.3079 19.2054V25.4393C32.7768 25.3835 31.854 25.3556 30.7081 25.3556C27.0181 25.3556 25.5922 26.7536 25.5922 30.3878V32.8201H32.9433L31.6803 39.6977H25.5922V55.1606C36.7359 53.8148 45.3707 44.3266 45.3707 32.8201H45.3698Z" fill="#0866FF"></path>
  <path d="M31.6798 39.6977L32.9428 32.8201H25.5917V30.3878C25.5917 26.7536 27.0176 25.3556 30.7075 25.3556C31.8535 25.3556 32.7762 25.3835 33.3073 25.4393V19.2054C32.3009 18.9254 29.8406 18.6464 28.4147 18.6464C20.8944 18.6464 17.4277 22.1968 17.4277 29.8566V32.8201H12.7871V39.6977H17.4277V54.6628C19.1687 55.0949 20.9898 55.3253 22.864 55.3253C23.7867 55.3253 24.6969 55.2686 25.5908 55.1606V39.6977H31.6798Z" fill="white"></path>
  <path d="M69.1028 39.9332C69.1589 39.7604 69.4034 39.7604 69.4595 39.9332L71.0285 44.7622C71.0536 44.8395 71.1257 44.8918 71.2069 44.8918H76.2844C76.4661 44.8918 76.5416 45.1243 76.3947 45.2311L72.2869 48.2156C72.2211 48.2633 72.1936 48.348 72.2187 48.4253L73.7878 53.2543C73.8439 53.427 73.6461 53.5707 73.4992 53.4639L69.3914 50.4795C69.3256 50.4317 69.2366 50.4317 69.1709 50.4795L65.0631 53.4639C64.9161 53.5707 64.7184 53.427 64.7745 53.2543L66.3435 48.4253C66.3687 48.348 66.3411 48.2633 66.2754 48.2156L62.1676 45.2311C62.0206 45.1243 62.0962 44.8918 62.2779 44.8918H67.3554C67.4366 44.8918 67.5086 44.8395 67.5337 44.7622L69.1028 39.9332Z" fill="white"></path>
  <path d="M85.0442 39.9331C85.1003 39.7603 85.3448 39.7603 85.4009 39.9331L86.9699 44.7621C86.9951 44.8394 87.0671 44.8917 87.1483 44.8917H92.2258C92.4075 44.8917 92.483 45.1242 92.3361 45.231L88.2283 48.2155C88.1625 48.2632 88.135 48.3479 88.1601 48.4251L89.7292 53.2541C89.7853 53.4269 89.5876 53.5706 89.4406 53.4638L85.3328 50.4793C85.267 50.4316 85.178 50.4316 85.1123 50.4793L81.0045 53.4638C80.8575 53.5706 80.6598 53.4269 80.7159 53.2541L82.2849 48.4251C82.3101 48.3479 82.2826 48.2632 82.2168 48.2155L78.109 45.231C77.962 45.1242 78.0376 44.8917 78.2193 44.8917H83.2968C83.378 44.8917 83.45 44.8394 83.4751 44.7621L85.0442 39.9331Z" fill="white"></path>
  <path d="M100.985 39.9331C101.041 39.7603 101.285 39.7603 101.341 39.9331L102.91 44.7621C102.935 44.8394 103.007 44.8917 103.089 44.8917H108.166C108.348 44.8917 108.423 45.1242 108.276 45.231L104.169 48.2155C104.103 48.2632 104.075 48.3479 104.101 48.4251L105.67 53.2541C105.726 53.4269 105.528 53.5706 105.381 53.4638L101.273 50.4793C101.207 50.4316 101.118 50.4316 101.053 50.4793L96.9449 53.4638C96.798 53.5706 96.6002 53.4269 96.6563 53.2541L98.2254 48.4251C98.2505 48.3479 98.223 48.2632 98.1573 48.2155L94.0495 45.231C93.9025 45.1242 93.978 44.8917 94.1597 44.8917H99.2372C99.3185 44.8917 99.3905 44.8394 99.4156 44.7621L100.985 39.9331Z" fill="white"></path>
  <path d="M116.926 39.9331C116.982 39.7603 117.227 39.7603 117.283 39.9331L118.852 44.7621C118.877 44.8394 118.949 44.8917 119.03 44.8917H124.108C124.289 44.8917 124.365 45.1242 124.218 45.231L120.11 48.2155C120.044 48.2632 120.017 48.3479 120.042 48.4251L121.611 53.2541C121.667 53.4269 121.469 53.5706 121.322 53.4638L117.215 50.4793C117.149 50.4316 117.06 50.4316 116.994 50.4793L112.886 53.4638C112.739 53.5706 112.542 53.4269 112.598 53.2541L114.167 48.4251C114.192 48.3479 114.164 48.2632 114.099 48.2155L109.991 45.231C109.844 45.1242 109.919 44.8917 110.101 44.8917H115.179C115.26 44.8917 115.332 44.8394 115.357 44.7621L116.926 39.9331Z" fill="white"></path>
  <path d="M132.867 39.9331C132.924 39.7603 133.168 39.7603 133.224 39.9331L134.793 44.7621C134.818 44.8394 134.89 44.8917 134.972 44.8917H140.049C140.231 44.8917 140.306 45.1242 140.159 45.231L136.052 48.2155C135.986 48.2632 135.958 48.3479 135.983 48.4251L137.552 53.2541C137.609 53.4269 137.411 53.5706 137.264 53.4638L133.156 50.4793C133.09 50.4316 133.001 50.4316 132.936 50.4793L128.828 53.4638C128.681 53.5706 128.483 53.4269 128.539 53.2541L130.108 48.4251C130.133 48.3479 130.106 48.2632 130.04 48.2155L125.932 45.231C125.785 45.1242 125.861 44.8917 126.043 44.8917H131.12C131.201 44.8917 131.273 44.8394 131.298 44.7621L132.867 39.9331Z" fill="white"></path>
</svg>
