<?xml version="1.0" encoding="UTF-8"?>
<svg xmlns="http://www.w3.org/2000/svg" width="146" height="56" viewBox="0 0 146 56" fill="none">
  <path d="M92.8921 9.02471L87.4889 16.0407H70.6344V19.7906H83.739C87.0185 19.7906 89.5185 20.4089 91.2389 21.6454C92.9593 22.8551 93.8195 24.6965 93.8195 27.1695C93.8195 29.9383 92.9189 32.1022 91.1179 33.6613C89.3169 35.2204 86.3734 36 82.2874 36H60.9572L66.32 29.0647H82.9326C83.9003 29.0647 84.6126 28.9168 85.0696 28.6211C85.5535 28.2985 85.7954 27.7878 85.7954 27.0889C85.7954 26.39 85.5535 25.8927 85.0696 25.597C84.6126 25.3013 83.9003 25.1534 82.9326 25.1534H62.3685V9.02471H92.8921ZM95.2071 32.5726C95.2071 31.3092 95.6372 30.3415 96.4974 29.6695C97.3845 28.9706 98.4597 28.6211 99.7231 28.6211C101.013 28.6211 102.089 28.9706 102.949 29.6695C103.836 30.3415 104.279 31.3092 104.279 32.5726C104.279 33.8092 103.836 34.7635 102.949 35.4355C102.089 36.1075 101.013 36.4435 99.7231 36.4435C98.4597 36.4435 97.3845 36.1075 96.4974 35.4355C95.6372 34.7635 95.2071 33.8092 95.2071 32.5726ZM121.946 8.58118C127.671 8.58118 131.972 9.69675 134.849 11.9279C137.725 14.159 139.163 17.6805 139.163 22.4922C139.163 27.3308 137.725 30.8657 134.849 33.0968C131.999 35.328 127.698 36.4435 121.946 36.4435C116.193 36.4435 111.879 35.328 109.003 33.0968C106.153 30.8657 104.728 27.3308 104.728 22.4922C104.728 17.6805 106.167 14.159 109.043 11.9279C111.919 9.69675 116.22 8.58118 121.946 8.58118ZM121.946 29.4275C123.586 29.4275 124.983 29.3469 126.139 29.1856C127.295 28.9974 128.223 28.648 128.921 28.1372C129.62 27.6265 130.131 26.9276 130.454 26.0405C130.776 25.1266 130.938 23.9438 130.938 22.4922C130.938 21.0406 130.776 19.8713 130.454 18.9842C130.131 18.0702 129.62 17.3713 128.921 16.8875C128.223 16.3767 127.295 16.0407 126.139 15.8794C124.983 15.6913 123.586 15.5972 121.946 15.5972C120.279 15.5972 118.868 15.6913 117.712 15.8794C116.583 16.0407 115.669 16.3767 114.97 16.8875C114.271 17.3713 113.76 18.0702 113.438 18.9842C113.115 19.8713 112.954 21.0406 112.954 22.4922C112.954 23.9438 113.115 25.1266 113.438 26.0405C113.76 26.9276 114.271 27.6265 114.97 28.1372C115.669 28.648 116.583 28.9974 117.712 29.1856C118.868 29.3469 120.279 29.4275 121.946 29.4275Z" fill="white"></path>
  <path d="M22.5049 28.7281V37.4438H34.6167C34.0849 40.2467 32.4889 42.6201 30.0952 44.2159L37.3991 49.8832C41.6546 45.9551 44.1097 40.1855 44.1097 33.3317C44.1097 31.7359 43.9666 30.2013 43.7005 28.7284L22.5049 28.7281Z" fill="#4285F4"></path>
  <path d="M9.89236 37.1038L8.24505 38.3648L2.41406 42.9066C6.11718 50.2514 13.707 55.3254 22.5044 55.3254C28.5807 55.3254 33.675 53.3204 37.3986 49.8833L30.0947 44.2161C28.0897 45.5664 25.5323 46.3848 22.5044 46.3848C16.6531 46.3848 11.6816 42.4362 9.90156 37.1168L9.89236 37.1038Z" fill="#34A853"></path>
  <path d="M2.41402 22.7338C0.879657 25.7616 0 29.1784 0 32.82C0 36.4617 0.879657 39.8785 2.41402 42.9063C2.41402 42.9267 9.90224 37.0959 9.90224 37.0959C9.45214 35.7456 9.18609 34.3135 9.18609 32.8198C9.18609 31.3261 9.45214 29.894 9.90224 28.5437L2.41402 22.7338Z" fill="#FBBC05"></path>
  <path d="M22.5049 19.2761C25.8193 19.2761 28.7654 20.4218 31.1182 22.6314L37.5628 16.1868C33.6551 12.5451 28.5814 10.3149 22.5049 10.3149C13.7075 10.3149 6.11718 15.3684 2.41406 22.7337L9.90205 28.5442C11.6819 23.2247 16.6536 19.2761 22.5049 19.2761Z" fill="#EA4335"></path>
  <path d="M67.8059 39.9332C67.862 39.7604 68.1065 39.7604 68.1626 39.9332L69.7317 44.7622C69.7568 44.8395 69.8288 44.8918 69.91 44.8918H74.9875C75.1692 44.8918 75.2448 45.1243 75.0978 45.2311L70.99 48.2156C70.9242 48.2633 70.8967 48.348 70.9219 48.4253L72.4909 53.2543C72.547 53.427 72.3493 53.5707 72.2023 53.4639L68.0945 50.4795C68.0288 50.4317 67.9398 50.4317 67.874 50.4795L63.7662 53.4639C63.6192 53.5707 63.4215 53.427 63.4776 53.2543L65.0467 48.4253C65.0718 48.348 65.0443 48.2633 64.9785 48.2156L60.8707 45.2311C60.7238 45.1243 60.7993 44.8918 60.981 44.8918H66.0585C66.1397 44.8918 66.2118 44.8395 66.2369 44.7622L67.8059 39.9332Z" fill="white"></path>
  <path d="M83.7473 39.9331C83.8034 39.7603 84.0479 39.7603 84.104 39.9331L85.6731 44.7621C85.6982 44.8394 85.7702 44.8917 85.8514 44.8917H90.9289C91.1106 44.8917 91.1862 45.1242 91.0392 45.231L86.9314 48.2155C86.8657 48.2632 86.8382 48.3479 86.8633 48.4251L88.4323 53.2541C88.4884 53.4269 88.2907 53.5706 88.1437 53.4638L84.0359 50.4793C83.9702 50.4316 83.8812 50.4316 83.8154 50.4793L79.7076 53.4638C79.5607 53.5706 79.3629 53.4269 79.419 53.2541L80.9881 48.4251C81.0132 48.3479 80.9857 48.2632 80.9199 48.2155L76.8122 45.231C76.6652 45.1242 76.7407 44.8917 76.9224 44.8917H81.9999C82.0811 44.8917 82.1532 44.8394 82.1783 44.7621L83.7473 39.9331Z" fill="white"></path>
  <path d="M99.6887 39.9331C99.7448 39.7603 99.9893 39.7603 100.045 39.9331L101.614 44.7621C101.64 44.8394 101.712 44.8917 101.793 44.8917H106.87C107.052 44.8917 107.128 45.1242 106.981 45.231L102.873 48.2155C102.807 48.2632 102.78 48.3479 102.805 48.4251L104.374 53.2541C104.43 53.4269 104.232 53.5706 104.085 53.4638L99.9773 50.4793C99.9116 50.4316 99.8226 50.4316 99.7568 50.4793L95.649 53.4638C95.5021 53.5706 95.3043 53.4269 95.3604 53.2541L96.9295 48.4251C96.9546 48.3479 96.9271 48.2632 96.8614 48.2155L92.7536 45.231C92.6066 45.1242 92.6821 44.8917 92.8638 44.8917H97.9413C98.0226 44.8917 98.0946 44.8394 98.1197 44.7621L99.6887 39.9331Z" fill="white"></path>
  <path d="M115.629 39.9331C115.685 39.7603 115.93 39.7603 115.986 39.9331L117.555 44.7621C117.58 44.8394 117.652 44.8917 117.733 44.8917H122.811C122.992 44.8917 123.068 45.1242 122.921 45.231L118.813 48.2155C118.747 48.2632 118.72 48.3479 118.745 48.4251L120.314 53.2541C120.37 53.4269 120.173 53.5706 120.026 53.4638L115.918 50.4793C115.852 50.4316 115.763 50.4316 115.697 50.4793L111.589 53.4638C111.442 53.5706 111.245 53.4269 111.301 53.2541L112.87 48.4251C112.895 48.3479 112.868 48.2632 112.802 48.2155L108.694 45.231C108.547 45.1242 108.623 44.8917 108.804 44.8917H113.882C113.963 44.8917 114.035 44.8394 114.06 44.7621L115.629 39.9331Z" fill="white"></path>
  <path d="M131.571 39.9331C131.627 39.7603 131.871 39.7603 131.927 39.9331L133.496 44.7621C133.521 44.8394 133.593 44.8917 133.675 44.8917H138.752C138.934 44.8917 139.009 45.1242 138.862 45.231L134.755 48.2155C134.689 48.2632 134.661 48.3479 134.686 48.4251L136.256 53.2541C136.312 53.4269 136.114 53.5706 135.967 53.4638L131.859 50.4793C131.793 50.4316 131.704 50.4316 131.639 50.4793L127.531 53.4638C127.384 53.5706 127.186 53.4269 127.242 53.2541L128.811 48.4251C128.836 48.3479 128.809 48.2632 128.743 48.2155L124.635 45.231C124.488 45.1242 124.564 44.8917 124.746 44.8917H129.823C129.904 44.8917 129.976 44.8394 130.002 44.7621L131.571 39.9331Z" fill="white"></path>
</svg>
