<?xml version="1.0" encoding="UTF-8"?>
<svg xmlns="http://www.w3.org/2000/svg" width="17" height="18" viewBox="0 0 17 18" fill="none">
  <path d="M8.2937 11.2647C9.66784 11.2647 10.7818 10.1508 10.7818 8.77661C10.7818 7.40246 9.66784 6.2885 8.2937 6.2885C6.91955 6.2885 5.80559 7.40246 5.80559 8.77661C5.80559 10.1508 6.91955 11.2647 8.2937 11.2647Z" fill="white"></path>
  <path fill-rule="evenodd" clip-rule="evenodd" d="M3.31748 0.48291C1.48529 0.48291 0 1.9682 0 3.80039V13.7528C0 15.585 1.48529 17.0703 3.31748 17.0703H13.2699C15.1021 17.0703 16.5874 15.585 16.5874 13.7528V3.80039C16.5874 1.9682 15.1021 0.48291 13.2699 0.48291H3.31748ZM8.2937 12.9235C10.5839 12.9235 12.4405 11.0668 12.4405 8.77661C12.4405 6.48637 10.5839 4.62976 8.2937 4.62976C6.00346 4.62976 4.14685 6.48637 4.14685 8.77661C4.14685 11.0668 6.00346 12.9235 8.2937 12.9235ZM13.2699 3.80039C13.2699 4.25844 12.8986 4.62976 12.4405 4.62976C11.9825 4.62976 11.6112 4.25844 11.6112 3.80039C11.6112 3.34234 11.9825 2.97102 12.4405 2.97102C12.8986 2.97102 13.2699 3.34234 13.2699 3.80039Z" fill="white"></path>
</svg>
