<?xml version="1.0" encoding="UTF-8"?>
<svg xmlns="http://www.w3.org/2000/svg" id="Layer_1" data-name="Layer 1" version="1.1" viewBox="0 0 110 135">
  <defs>
    <style>
      .cls-1 {
        fill: #000;
        stroke-width: 0px;
      }
    </style>
  </defs>
  <path class="cls-1" d="M78.4,38.5c-2.4-2.5-6.8-3-10.6.7l-20.5,20-8-8c-1.9-2.1-4.7-3-7.4-2.4-2.3.6-4.1,2.4-4.7,4.8-.6,2.7.3,5.6,2.4,7.4l11.8,11.8c3.3,3.2,8.5,3.3,11.8,0l24.4-23.8c3.8-3.7,3.3-8.1.9-10.6h0ZM51.4,71.1c-2.3,2.3-6,2.2-8.4,0l-11.8-11.8c-1.5-1.2-2.1-3.2-1.7-5,.4-1.5,1.5-2.6,3-3,.4,0,.7-.1,1.1-.1,1.5,0,2.9.7,3.9,1.9l8.9,8.9h0c.5.5,1.3.5,1.7,0l21.4-20.8c2.8-2.7,5.6-2.3,7.1-.7,1.5,1.5,1.9,4.4-.9,7.1l-24.4,23.7ZM93.3,68.5h0c-2.5,0-4.6,1.6-5.3,4-1.1-.3-2.2-.8-3.3-1.4,5.2-8.3,8.7-17.5,10.3-27.1,0-.3,0-.6-.1-.8l-13.3-23.1c-.1-.3-.4-.5-.7-.6-17.9-6.1-37.4-6-55.3.1-.3,0-.5.3-.7.6l-13.6,23.5c-.1.3-.2.5-.1.8,2,11.8,7,23,14.3,32.5,6.8,8.7,15.8,16.3,26.9,22.8.4.2.9.2,1.2,0,2.7-1.5,5.2-3.2,7.6-4.8h0c.5.8,1.3,1.4,2.1,1.8-.5.8-.8,1.7-.7,2.6.1,2.5,2.2,4.5,4.7,4.5h15.6c.9,0,1.7-.2,2.5-.6,0,0,0,0,.1,0l2.5-1.5h0c1,2.5,3.5,3.9,6.1,3.4,2.6-.5,4.5-2.8,4.5-5.4v-25.6c0-3-2.5-5.5-5.5-5.5h0ZM53.1,97.2c-22.1-13-35.3-30.7-39.4-52.7l13.1-22.7c17.1-5.8,35.7-5.8,52.8-.1l12.9,22.3c-1.6,9.1-4.9,17.9-9.8,25.7-3.1-2.4-5.7-5.5-7.5-9-.7-1.4-2.1-2.3-3.6-2.3-1.7,0-3.2.9-3.9,2.4-1.8,3.1-1.5,6.7.8,10.5h0c.5.8,1.1,1.6,1.7,2.4h-5.5c-2.6,0-4.7,2.1-4.7,4.7,0,1.2.4,2.3,1.2,3.2-1.3,1-2,2.5-1.9,4.1.1,1.6,1,3,2.4,3.8-.7.8-1.1,1.8-1.1,2.9,0,0,0,.1,0,.2-2.4,1.7-4.9,3.3-7.5,4.8h0ZM84.5,100.9c-.4.2-.9.3-1.4.3h-15.6c-1.2,0-2.1-.9-2.2-2.1,0-.6.2-1.1.6-1.5.4-.4,1-.6,1.5-.6h6.9c.7,0,1.2-.6,1.2-1.2s-.6-1.2-1.2-1.2h-9c-1.2,0-2.3-1-2.3-2.3.2-1.4,1.5-2.5,2.9-2.3h6.4c.7,0,1.2-.6,1.2-1.2s-.5-1.2-1.2-1.2h-8.4s0,0,0,0c-.6,0-1.2-.2-1.6-.6-.4-.4-.7-1-.7-1.6,0-.6.2-1.2.7-1.6.4-.4,1-.7,1.6-.6h7.1c.3,0,.7-.1.9-.4.2-.2.4-.6.4-.9s-.1-.7-.4-.9c-.2-.2-.6-.4-.9-.4h-6.5,0c-.6,0-1.2-.2-1.6-.6s-.7-1-.7-1.6c0-1.2,1-2.3,2.3-2.3h8.5,0c.5,0,1-.3,1.2-.8.2-.5,0-1-.4-1.4,0,0-7.4-6.3-4.1-11.9.3-.7,1-1.1,1.7-1.1h0c.7,0,1.2.4,1.5,1,5.3,9.8,12.1,12.5,14.8,13.1v23.9l-3.3,2ZM96.3,99.6c0,.8-.3,1.6-.9,2.2-.6.6-1.3.9-2.2.9s-1.6-.3-2.2-.9c-.6-.6-.9-1.4-.9-2.2v-25.6c0-1.6,1.4-3,3-3s3,1.3,3,3v25.6Z"></path>
</svg>
