<?xml version="1.0" encoding="UTF-8"?>
<svg xmlns="http://www.w3.org/2000/svg" id="Layer_1" data-name="Layer 1" version="1.1" viewBox="0 0 512 640">
  <defs>
    <style>
      .cls-1 {
        fill: #000;
        stroke-width: 0px;
      }
    </style>
  </defs>
  <path class="cls-1" d="M216.1,388.4c-18.3,25-31.2,58.5-35.5,88.6-.4,2.8-3.5,4.3-6,2.9-23.6-11.5-30.8-33-36-48.5s-4.3-12.9-6.7-14.3c-3.4-2-12.8.3-23.4,2.9-9.6,2.3-20.3,4.9-29.9,5-25.4.2-26.1-17.4-12.8-37.5,14.6-22.2,30.1-39.9,49.8-57.1l-.8-.5c-16.9-9.8-26.8-26.7-26.8-46.3v-132.3c0-19.6,9.8-36.5,26.8-46.3l114.6-66.1c16.9-9.8,36.5-9.8,53.5,0l114.6,66.1c17,9.8,26.7,26.8,26.7,46.3v132.3c0,18.5-10,38-27,46.4l-.6.4c19.7,17.1,35.2,34.9,49.8,57.1,13.3,20.2,12.6,37.7-12.8,37.5-9.7,0-20.3-2.7-29.9-5-10.7-2.6-20.1-4.9-23.4-2.9-2.4,1.4-4.2,7.1-6.7,14.3-5.2,15.5-12.4,37-36,48.5-2.4,1.4-5.6,0-6-2.9-4.3-30.1-17.2-63.6-35.5-88.6l-13.2,7.6c-17,9.8-36.5,9.8-53.5,0l-13.2-7.6ZM257.8,262.9l35.9,18.4c6.1,3.2,12-1.1,10.9-7.9l-6.3-38.9c0-.4-.3-1.8,1.1-3.5l28.7-28.5c4.9-4.9,2.6-11.8-4.2-12.8l-39-6.1c-.4,0-2.2-.4-3-2.1-6.1-12-12.2-24-18.2-36-3.5-7.1-13.4-5.9-15.9,0-6.1,12-12.2,24-18.2,36-.6,1.2-1.8,2-3.1,2.1l-38.8,6c-6.8,1.1-9.1,8-4.2,12.8l28.7,28.5c1,1,1.3,2.3,1.1,3.6l-6.3,38.8c-1.1,6.8,4.8,11.1,10.9,7.9l36-18.4c1.2-.6,2.5-.6,3.7,0h0ZM290.2,288.5l-34.2-17.5-34.2,17.5c-12,6.1-24.6-3-22.4-16.3l5.9-36.9-27.2-27.1c-9.5-9.5-4.7-24.3,8.6-26.4l36.9-5.7c5.8-11.4,11.6-22.9,17.4-34.3,6.3-12,23.8-11.9,30,0,5.8,11.4,11.6,22.9,17.4,34.3l36.9,5.7c13.3,2.1,18.1,16.9,8.6,26.4l-27.2,27.1,6,36.9c2.1,13.3-10.5,22.4-22.4,16.3h0ZM122.9,334.6c-20,17.1-35.7,34.8-50.4,57.2-8.8,13.3-13.3,25.3,6.1,25.2,19.8-.2,46.9-13,57.4-6.8,12.3,7.2,9.4,42.7,37.6,60.1,5.2-29.4,17.8-61.3,35.6-85.9l-86.3-49.8ZM389.1,334.6l-86.3,49.8c17.8,24.6,30.4,56.4,35.6,85.9,28.2-17.4,25.3-52.9,37.6-60.1,10.5-6.1,37.6,6.6,57.4,6.8,19.3.2,14.8-11.9,6.1-25.2-14.7-22.4-30.4-40.1-50.4-57.2h0ZM379,151.3c0-3.5-1.2-5.6-4.2-7.4-38.2-22.1-76.4-44.1-114.5-66.1-3-1.8-5.5-1.8-8.5,0l-114.6,66.1c-3.1,1.8-4.2,3.9-4.2,7.4v132.3c0,3.5,1.2,5.6,4.2,7.4l114.6,66.1c3.5,2,5.3,1.6,8.7-.1l114.4-66c3-1.8,4.2-3.9,4.2-7.4v-132.3h0ZM387,151.3v132.3c0,6.4-2.7,11.1-8.2,14.3l-114.4,66c-5.2,3.4-11.4,3.1-16.7.1l-114.6-66.1c-5.5-3.2-8.2-7.9-8.2-14.3v-132.3c0-6.4,2.7-11.1,8.2-14.3l114.6-66.1c6.2-3.6,11.4-3.2,16.5,0l114.3,66c5.6,2.8,8.5,8.3,8.5,14.4h0ZM416,283.6v-132.3c0-16.8-8.2-30.9-22.7-39.3l-114.5-66.2c-14.5-8.4-31-8.4-45.5,0l-114.6,66.1c-14.5,8.4-22.7,22.7-22.7,39.4v132.3c0,16.8,8.2,31,22.7,39.4l114.6,66.1c14.5,8.4,31,8.4,45.5,0,38.2-22,76.4-44.1,114.5-66.1,14.5-8.4,22.7-22.6,22.7-39.4h0Z"></path>
</svg>
