<?xml version="1.0" encoding="UTF-8"?>
<svg xmlns="http://www.w3.org/2000/svg" width="16" height="17" viewBox="0 0 16 17" fill="none">
  <path d="M13.5297 3.63569C13.4169 3.57639 13.3071 3.51138 13.2007 3.44091C12.8914 3.23283 12.6077 2.98765 12.3559 2.71066C11.7259 1.97721 11.4906 1.23315 11.4039 0.712194H11.4074C11.335 0.279778 11.365 0 11.3695 0H8.49992V11.2896C8.49992 11.4411 8.49992 11.5909 8.49366 11.739C8.49366 11.7574 8.49192 11.7744 8.49087 11.7942C8.49087 11.8024 8.49087 11.8109 8.48913 11.8194C8.48913 11.8215 8.48913 11.8236 8.48913 11.8257C8.45888 12.2308 8.33126 12.6221 8.11749 12.9652C7.90372 13.3083 7.61036 13.5927 7.2632 13.7934C6.90139 14.0028 6.49217 14.1127 6.07591 14.1121C4.73894 14.1121 3.65537 13.0029 3.65537 11.6331C3.65537 10.2632 4.73894 9.15404 6.07591 9.15404C6.32899 9.1538 6.58051 9.19432 6.82114 9.2741L6.82462 6.30137C6.09413 6.20537 5.35202 6.26444 4.64509 6.47485C3.93816 6.68526 3.28176 7.04246 2.7173 7.5239C2.2227 7.96113 1.80689 8.48282 1.48858 9.06551C1.36745 9.278 0.910427 10.1318 0.855082 11.5176C0.820274 12.3042 1.05244 13.1191 1.16313 13.4559V13.463C1.23275 13.6613 1.50251 14.3381 1.94213 14.9086C2.29663 15.3663 2.71545 15.7683 3.18512 16.1017V16.0947L3.19208 16.1017C4.58126 17.0622 6.1215 16.9992 6.1215 16.9992C6.38813 16.9882 7.2813 16.9992 8.2956 16.5101C9.42059 15.9679 10.0611 15.1601 10.0611 15.1601C10.4702 14.6774 10.7956 14.1273 11.0231 13.5335C11.2828 12.839 11.3695 12.006 11.3695 11.6731V5.68374C11.4043 5.70499 11.8679 6.01699 11.8679 6.01699C11.8679 6.01699 12.5359 6.4526 13.578 6.73627C14.3257 6.93813 15.333 6.98063 15.333 6.98063V4.08228C14.9801 4.12123 14.2634 4.0079 13.5297 3.63569Z" fill="#F9AC00"></path>
</svg>
