<?xml version="1.0" encoding="UTF-8"?>
<svg xmlns="http://www.w3.org/2000/svg" id="Layer_1" data-name="Layer 1" version="1.1" viewBox="0 0 128 160">
  <defs>
    <style>
      .cls-1 {
        fill: #000;
        stroke-width: 0px;
      }
    </style>
  </defs>
  <path class="cls-1" d="M111.2,68.3c6.8-4.6,8.5-13.8,3.9-20.6-4.6-6.8-13.8-8.5-20.6-3.9s-8.5,13.8-3.9,20.6c1,1.5,2.4,2.9,3.9,3.9-2.7.9-5.2,2.3-7.4,4.1-3.8-3.3-8.3-5.8-13.2-7.2,9.8-5.5,13.4-17.9,7.9-27.7-5.5-9.8-17.9-13.4-27.7-7.9-9.8,5.5-13.4,17.9-7.9,27.7,1.8,3.3,4.6,6.1,7.9,7.9-4.9,1.4-9.4,3.9-13.2,7.2-2.2-1.8-4.7-3.2-7.4-4.1,6.8-4.6,8.5-13.8,3.9-20.6-4.6-6.8-13.8-8.5-20.6-3.9s-8.5,13.8-3.9,20.6c1.1,1.6,2.4,2.9,3.9,3.9C6.8,71.8,0,81.3,0,92c0,1.1.9,2,2,2s2-.9,2-2c0-11.7,9.5-21.2,21.2-21.1,4.6,0,9.2,1.5,12.8,4.4-5.9,6.5-9.2,14.9-9.2,23.7,0,1.1.9,2,2,2s2-.9,2-2c.3-17.2,14.5-30.9,31.7-30.6,16.8.3,30.3,13.8,30.6,30.6,0,1.1.9,2,2,2s2-.9,2-2c0-8.8-3.3-17.2-9.2-23.7,9.3-7.1,22.6-5.4,29.7,3.9,2.8,3.7,4.4,8.2,4.4,12.9,0,1.1.9,2,2,2s2-.9,2-2c0-10.7-6.8-20.2-16.8-23.7ZM14.3,56c0-6,4.9-10.8,10.9-10.8,6,0,10.8,4.9,10.8,10.9,0,6-4.9,10.8-10.8,10.8-6,0-10.8-4.9-10.8-10.8,0,0,0,0,0,0ZM47.6,47.4c0-9,7.4-16.3,16.4-16.3,9,0,16.3,7.4,16.3,16.4,0,9-7.3,16.3-16.4,16.3-9,0-16.3-7.3-16.4-16.4h0ZM92,56c0-6,4.8-10.8,10.8-10.8s10.8,4.8,10.8,10.8c0,6-4.8,10.8-10.8,10.8-6,0-10.8-4.9-10.8-10.8Z"></path>
</svg>
