<?xml version="1.0" encoding="UTF-8"?>
<svg xmlns="http://www.w3.org/2000/svg" id="Layer_1" data-name="Layer 1" version="1.1" viewBox="0 0 110 135">
  <defs>
    <style>
      .cls-1 {
        fill: #000;
        stroke-width: 0px;
      }
    </style>
  </defs>
  <path class="cls-1" d="M71.7,80h-33.5c-.8,0-1.5-.7-1.5-1.5v-6.1c0-2.7,1.7-5,4.2-5.8l8.4-3.3.9-4.1c.2-.8.9-1.3,1.7-1.1.8.2,1.3.9,1.1,1.7l-1,4.9c-.1.5-.4.9-.9,1.1l-9.2,3.6s0,0-.1,0c-1.3.4-2.2,1.6-2.2,3v4.7h30.5v-4.7c0-1.4-.9-2.6-2.2-3,0,0,0,0-.1,0l-8.6-3.6c-.4-.2-.8-.6-.9-1l-1-4.5c-.2-.8.3-1.6,1.1-1.7.8-.2,1.6.3,1.7,1.1l.8,3.7,7.8,3.3c2.5.8,4.2,3.1,4.2,5.8v6.2c0,.8-.7,1.5-1.5,1.5h0Z"></path>
  <path class="cls-1" d="M55.3,68c-2.2,0-4.3-1-5.7-2.7-.5-.6-.4-1.5.2-2,.6-.5,1.5-.4,2,.2.8,1.1,2.1,1.7,3.5,1.7s2.6-.6,3.5-1.7c.5-.6,1.4-.7,2-.2s.7,1.4.2,2c-1.4,1.7-3.5,2.7-5.7,2.7h0Z"></path>
  <path class="cls-1" d="M55.7,62c-5.2,0-9.5-4.2-9.5-9.5v-3.1c0-5.2,4.2-9.5,9.5-9.5s9.5,4.2,9.5,9.5v3.1c0,5.2-4.2,9.5-9.5,9.5ZM55.7,42.9c-3.6,0-6.6,2.9-6.6,6.6v3.1c0,3.6,2.9,6.6,6.6,6.6s6.6-2.9,6.6-6.6v-3.1c0-3.6-2.9-6.6-6.6-6.6Z"></path>
  <path class="cls-1" d="M63.7,50.9h-2.4c-1.4,0-2.7-.4-3.8-1.3-1.1.8-2.4,1.3-3.8,1.3h-6c-.8,0-1.5-.7-1.5-1.5s.7-1.5,1.5-1.5h6c1,0,2-.5,2.6-1.3.3-.3.7-.5,1.1-.5s.9.2,1.1.5c.6.8,1.6,1.3,2.6,1.3h2.4c.8,0,1.5.6,1.5,1.4,0,.8-.6,1.5-1.5,1.5Z"></path>
  <path class="cls-1" d="M55,106.5c-12.4,0-24.1-4.8-32.9-13.6-8.8-8.8-13.6-20.5-13.6-32.9s4.8-24.1,13.6-32.9c8.8-8.8,20.5-13.6,32.9-13.6s24.1,4.8,32.9,13.6c8.8,8.8,13.6,20.5,13.6,32.9s-4.8,24.1-13.6,32.9c-8.8,8.8-20.5,13.6-32.9,13.6ZM55,16.4c-24.1,0-43.6,19.6-43.6,43.6s19.6,43.6,43.6,43.6,43.6-19.6,43.6-43.6-19.6-43.6-43.6-43.6Z"></path>
  <path class="cls-1" d="M55,96.4c-20.1,0-36.4-16.3-36.4-36.4S34.9,23.6,55,23.6s36.4,16.3,36.4,36.4-16.3,36.4-36.4,36.4ZM55,26.5c-18.4,0-33.5,15-33.5,33.5s15,33.5,33.5,33.5,33.5-15,33.5-33.5-15-33.5-33.5-33.5Z"></path>
  <path class="cls-1" d="M55,32.4c-.8,0-1.5-.7-1.5-1.5v-10.2c0-.8.7-1.5,1.5-1.5s1.5.7,1.5,1.5v10.2c0,.8-.6,1.5-1.5,1.5Z"></path>
  <path class="cls-1" d="M94.3,61.5h-10.2c-.8,0-1.5-.7-1.5-1.5s.7-1.5,1.5-1.5h10.2c.8,0,1.5.7,1.5,1.5s-.7,1.5-1.5,1.5Z"></path>
  <path class="cls-1" d="M55,100.7c-.8,0-1.5-.7-1.5-1.5v-10.2c0-.8.7-1.5,1.5-1.5s1.5.7,1.5,1.5v10.2c0,.8-.6,1.5-1.5,1.5Z"></path>
  <path class="cls-1" d="M25.9,61.5h-10.2c-.8,0-1.5-.7-1.5-1.5s.7-1.5,1.5-1.5h10.2c.8,0,1.5.7,1.5,1.5s-.7,1.5-1.5,1.5Z"></path>
</svg>
