<?xml version="1.0" encoding="UTF-8"?>
<svg xmlns="http://www.w3.org/2000/svg" width="33" height="33" viewBox="0 0 33 33" fill="none">
  <path d="M16.2998 27.8C9.8998 27.8 4.7998 22.7 4.7998 16.3C4.7998 9.89999 9.8998 4.79999 16.2998 4.79999C22.6998 4.79999 27.7998 9.99999 27.7998 16.3C27.7998 22.6 22.6998 27.8 16.2998 27.8ZM16.2998 6.29999C10.7998 6.29999 6.2998 10.8 6.2998 16.3C6.2998 21.8 10.7998 26.3 16.2998 26.3C21.7998 26.3 26.2998 21.8 26.2998 16.3C26.2998 10.8 21.7998 6.29999 16.2998 6.29999Z" fill="white" stroke="white" stroke-width="2"></path>
  <path d="M31.5 15.5H27V17.1H31.5V15.5Z" fill="white" stroke="white" stroke-width="2"></path>
  <path d="M5.5 15.5H1V17.1H5.5V15.5Z" fill="white" stroke="white" stroke-width="2"></path>
  <path d="M17.1 27H15.5V31.5H17.1V27Z" fill="white" stroke="white" stroke-width="2"></path>
  <path d="M17.1 1H15.5V5.5H17.1V1Z" fill="white" stroke="white" stroke-width="2"></path>
  <path d="M16.2996 21C13.6996 21 11.5996 18.9 11.5996 16.3C11.5996 13.7 13.6996 11.6 16.2996 11.6C18.8996 11.6 20.9996 13.7 20.9996 16.3C20.9996 18.9 18.8996 21 16.2996 21ZM16.2996 13.2C14.5996 13.2 13.1996 14.6 13.1996 16.3C13.1996 18 14.5996 19.4 16.2996 19.4C17.9996 19.4 19.3996 18 19.3996 16.3C19.3996 14.6 17.9996 13.2 16.2996 13.2Z" fill="white" stroke="white" stroke-width="2"></path>
</svg>
