<?xml version="1.0" encoding="UTF-8"?>
<svg xmlns="http://www.w3.org/2000/svg" width="589" height="5" viewBox="0 0 589 5" fill="none">
  <path d="M515.378 1.27579L441.748 0.57222C392.669 0.168842 343.583 0.196999 294.496 0C245.41 0.20638 196.331 0.168851 147.245 0.58161L73.6223 1.28518C49.0792 1.69794 24.5361 1.94183 0 2.50468C24.5431 3.06753 49.0863 3.31145 73.6223 3.72421L147.245 4.41839C196.331 4.83115 245.41 4.79362 294.496 5C343.576 4.803 392.662 4.82178 441.748 4.42778L515.378 3.72421C539.921 3.31145 564.464 3.06755 589 2.49532C564.457 1.92309 539.921 1.67916 515.378 1.2664V1.27579Z" fill="url(#paint0_linear_2248_1450)"></path>
  <defs>
    <linearGradient id="paint0_linear_2248_1450" x1="0.0127252" y1="2.49982" x2="589" y2="2.49982" gradientUnits="userSpaceOnUse">
      <stop stop-color="#F9AC00"></stop>
      <stop offset="0.91" stop-color="#FF7600"></stop>
    </linearGradient>
  </defs>
</svg>
