<?xml version="1.0" encoding="UTF-8"?>
<svg xmlns="http://www.w3.org/2000/svg" width="18" height="19" viewBox="0 0 18 19" fill="none">
  <path fill-rule="evenodd" clip-rule="evenodd" d="M12.0967 5.75732C11.1939 4.88617 9.98926 4.4116 8.74281 4.4311C6.46194 4.4311 4.52481 5.98809 3.83412 8.08466C3.46789 9.18334 3.46789 10.3731 3.83412 11.4718H3.83732C4.53122 13.5651 6.46515 15.1221 8.74602 15.1221C9.92341 15.1221 10.9342 14.8174 11.7176 14.2792V14.277C12.6396 13.6594 13.2692 12.6875 13.4652 11.5888H8.74282V8.18224H16.9893C17.0921 8.77384 17.1403 9.37843 17.1403 9.97978C17.1403 12.6704 16.19 14.9452 14.5364 16.486L14.5382 16.4873C13.0893 17.8395 11.1008 18.6229 8.74281 18.6229C5.43715 18.6229 2.41418 16.7376 0.930009 13.7504C-0.310006 11.2507 -0.310003 8.30574 0.930018 5.80609C2.41419 2.81561 5.43715 0.930284 8.74281 0.930284C10.9145 0.904279 13.0122 1.72991 14.5928 3.23166L12.0967 5.75732Z" fill="#F9AC00"></path>
</svg>
