<?xml version="1.0" encoding="UTF-8"?>
<svg xmlns="http://www.w3.org/2000/svg" width="20" height="16" viewBox="0 0 20 16" fill="none">
  <path d="M0.973535 0.79435C1.50429 0.323371 2.21051 0.0361328 2.98573 0.0361328H16.9191C17.6944 0.0361328 18.4006 0.323371 18.9313 0.79435L9.95244 6.61401L0.973535 0.79435Z" fill="#F9AC00"></path>
  <path d="M0.0323479 2.51014C0.0110389 2.65006 0 2.79324 0 2.93893V12.6149C0 14.2181 1.33676 15.5177 2.98573 15.5177H16.9191C18.5681 15.5177 19.9049 14.2181 19.9049 12.6149V2.93893C19.9049 2.79324 19.8938 2.65006 19.8725 2.51014L10.5045 8.58201C10.1702 8.79868 9.73468 8.79868 9.40038 8.58201L0.0323479 2.51014Z" fill="#F9AC00"></path>
</svg>
