<?xml version="1.0" encoding="UTF-8"?>
<svg xmlns="http://www.w3.org/2000/svg" width="133" height="57" viewBox="0 0 133 57" fill="none">
  <path d="M49.8352 9.02471H80.3589L74.9557 16.0407H58.1012V19.7906H71.2058C77.7379 19.7906 81.2863 22.2503 81.2863 27.1695C81.2863 32.6936 77.9395 36 69.7542 36H48.424L53.7868 29.0647H70.3994C72.3348 29.0647 73.2622 28.5001 73.2622 27.0889C73.2622 25.7179 72.3348 25.1534 70.3994 25.1534H49.8352V9.02471ZM82.6739 32.5726C82.6739 30.0727 84.69 28.6211 87.1899 28.6211C89.7302 28.6211 91.7463 30.0727 91.7463 32.5726C91.7463 35.0323 89.7302 36.4435 87.1899 36.4435C84.69 36.4435 82.6739 35.0323 82.6739 32.5726ZM109.413 8.58118C120.864 8.58118 126.63 12.8553 126.63 22.4922C126.63 32.1291 120.864 36.4435 109.413 36.4435C97.9612 36.4435 92.1952 32.1291 92.1952 22.4922C92.1952 12.8553 97.9612 8.58118 109.413 8.58118ZM109.413 29.4275C116.025 29.4275 118.404 28.2985 118.404 22.4922C118.404 16.6859 116.025 15.5972 109.413 15.5972C102.8 15.5972 100.421 16.6859 100.421 22.4922C100.421 28.2985 102.8 29.4275 109.413 29.4275Z" fill="white"></path>
  <path d="M17.247 9.75342C17.0861 9.1639 16.6034 8.73402 15.9599 8.52034C13.9224 7.98362 5.98466 10.2361 4.53665 11.7884C4.05397 12.2711 3.89308 12.9197 4.05397 13.4514C4.26891 13.9341 14.0832 29.5945 14.0832 29.5945C15.5313 31.9538 16.7103 31.632 17.0861 31.4711C17.4632 31.3643 18.641 30.9885 18.5341 28.2031C18.3192 24.9324 17.3538 10.451 17.247 9.75342ZM13.0098 39.1424C13.8143 38.9287 14.351 38.177 14.405 37.2657C14.4578 36.3004 13.9751 35.4419 13.1707 35.1201L10.922 34.2088C3.25455 30.991 2.93151 30.8841 2.55568 30.8841C1.96617 30.8301 1.42442 31.1519 1.05487 31.7414C0.300698 32.9757 -0.0185697 36.9439 0.250419 39.5722C0.357261 40.4295 0.518152 41.1811 0.733092 41.6098C1.05487 42.1993 1.53754 42.5751 2.12706 42.5751C2.50415 42.5751 2.71657 42.5211 9.84981 40.2158L13.0098 39.1424ZM17.0321 42.0924C16.1748 41.7154 15.2095 41.9315 14.6728 42.6292L13.1179 44.5058C7.75446 50.9414 7.53952 51.2092 7.37863 51.585C7.29125 51.8066 7.25474 52.045 7.27179 52.2826C7.28778 52.6469 7.44088 52.9917 7.70041 53.2479C8.93474 54.7488 14.8877 57.0012 16.8184 56.6794C17.1195 56.6413 17.4041 56.5204 17.6406 56.3303C17.8772 56.1401 18.0564 55.8881 18.1583 55.6022C18.2664 55.2251 18.3192 54.9587 18.3192 47.3968V43.9691C18.4273 43.1646 17.8906 42.4142 17.0321 42.0924ZM35.6954 43.6008C35.3736 43.3858 35.1599 43.279 28.0279 40.9184C28.0279 40.9184 24.917 39.8463 24.8642 39.8463C24.11 39.5245 23.2553 39.7922 22.6645 40.5439C22.0737 41.2955 21.9681 42.2596 22.4508 43.01L23.6839 45.1016C27.9211 52.0739 28.2429 52.5566 28.5106 52.8243C28.9933 53.2014 29.5828 53.2542 30.2264 52.9852C32.0502 52.2311 35.9656 47.1932 36.2334 45.2097C36.3389 44.5598 36.1781 43.9691 35.6954 43.5945V43.6008ZM24.2194 35.6631C25.3506 35.4482 34.5691 33.2497 35.3208 32.713C35.8035 32.3912 36.075 31.8017 36.0172 31.1041V31.0513C35.8035 29.0125 32.3167 23.761 30.6009 22.8987C30.0114 22.631 29.3679 22.631 28.8852 22.9527C28.5634 23.1677 28.3485 23.4895 24.0044 29.4952L22.0197 32.2228C21.4842 32.8664 21.4842 33.7789 22.0197 34.5834C22.5564 35.4419 23.0931 35.868 24.2194 35.6568V35.6631Z" fill="#D32323"></path>
  <path d="M55.4602 39.9332C55.5163 39.7604 55.7608 39.7604 55.8169 39.9332L57.386 44.7622C57.4111 44.8395 57.4831 44.8918 57.5643 44.8918H62.6418C62.8235 44.8918 62.8991 45.1243 62.7521 45.2311L58.6443 48.2156C58.5785 48.2633 58.551 48.348 58.5761 48.4253L60.1452 53.2543C60.2013 53.427 60.0036 53.5707 59.8566 53.4639L55.7488 50.4795C55.6831 50.4317 55.5941 50.4317 55.5283 50.4795L51.4205 53.4639C51.2735 53.5707 51.0758 53.427 51.1319 53.2543L52.701 48.4253C52.7261 48.348 52.6986 48.2633 52.6328 48.2156L48.525 45.2311C48.3781 45.1243 48.4536 44.8918 48.6353 44.8918H53.7128C53.794 44.8918 53.866 44.8395 53.8912 44.7622L55.4602 39.9332Z" fill="white"></path>
  <path d="M71.4016 39.9331C71.4577 39.7603 71.7022 39.7603 71.7583 39.9331L73.3274 44.7621C73.3525 44.8394 73.4245 44.8917 73.5057 44.8917H78.5832C78.7649 44.8917 78.8405 45.1242 78.6935 45.231L74.5857 48.2155C74.52 48.2632 74.4924 48.3479 74.5176 48.4251L76.0866 53.2541C76.1427 53.4269 75.945 53.5706 75.798 53.4638L71.6902 50.4793C71.6245 50.4316 71.5355 50.4316 71.4697 50.4793L67.3619 53.4638C67.215 53.5706 67.0172 53.4269 67.0733 53.2541L68.6424 48.4251C68.6675 48.3479 68.64 48.2632 68.5742 48.2155L64.4664 45.231C64.3195 45.1242 64.395 44.8917 64.5767 44.8917H69.6542C69.7354 44.8917 69.8075 44.8394 69.8326 44.7621L71.4016 39.9331Z" fill="white"></path>
  <path d="M87.342 39.9331C87.3982 39.7603 87.6426 39.7603 87.6988 39.9331L89.2678 44.7621C89.2929 44.8394 89.3649 44.8917 89.4462 44.8917H94.5237C94.7054 44.8917 94.7809 45.1242 94.6339 45.231L90.5261 48.2155C90.4604 48.2632 90.4329 48.3479 90.458 48.4251L92.027 53.2541C92.0832 53.4269 91.8854 53.5706 91.7384 53.4638L87.6306 50.4793C87.5649 50.4316 87.4759 50.4316 87.4102 50.4793L83.3024 53.4638C83.1554 53.5706 82.9576 53.4269 83.0138 53.2541L84.5828 48.4251C84.6079 48.3479 84.5804 48.2632 84.5147 48.2155L80.4069 45.231C80.2599 45.1242 80.3354 44.8917 80.5171 44.8917H85.5946C85.6759 44.8917 85.7479 44.8394 85.773 44.7621L87.342 39.9331Z" fill="white"></path>
  <path d="M103.283 39.9331C103.34 39.7603 103.584 39.7603 103.64 39.9331L105.209 44.7621C105.234 44.8394 105.306 44.8917 105.388 44.8917H110.465C110.647 44.8917 110.722 45.1242 110.575 45.231L106.468 48.2155C106.402 48.2632 106.374 48.3479 106.399 48.4251L107.968 53.2541C108.025 53.4269 107.827 53.5706 107.68 53.4638L103.572 50.4793C103.506 50.4316 103.417 50.4316 103.352 50.4793L99.2438 53.4638C99.0968 53.5706 98.899 53.4269 98.9552 53.2541L100.524 48.4251C100.549 48.3479 100.522 48.2632 100.456 48.2155L96.3483 45.231C96.2013 45.1242 96.2768 44.8917 96.4585 44.8917H101.536C101.617 44.8917 101.689 44.8394 101.714 44.7621L103.283 39.9331Z" fill="white"></path>
  <path d="M119.225 39.9331C119.281 39.7603 119.525 39.7603 119.582 39.9331L121.151 44.7621C121.176 44.8394 121.248 44.8917 121.329 44.8917H126.406C126.588 44.8917 126.664 45.1242 126.517 45.231L122.409 48.2155C122.343 48.2632 122.316 48.3479 122.341 48.4251L123.91 53.2541C123.966 53.4269 123.768 53.5706 123.621 53.4638L119.513 50.4793C119.448 50.4316 119.359 50.4316 119.293 50.4793L115.185 53.4638C115.038 53.5706 114.84 53.4269 114.897 53.2541L116.466 48.4251C116.491 48.3479 116.463 48.2632 116.397 48.2155L112.29 45.231C112.143 45.1242 112.218 44.8917 112.4 44.8917H117.477C117.559 44.8917 117.631 44.8394 117.656 44.7621L119.225 39.9331Z" fill="white"></path>
</svg>
